<?xml version="1.0" encoding="utf-8" standalone="no"?>
<!DOCTYPE svg PUBLIC "-//W3C//DTD SVG 1.1//EN"
  "http://www.w3.org/Graphics/SVG/1.1/DTD/svg11.dtd">
<!-- Created with matplotlib (https://matplotlib.org/) -->
<svg height="296.39952pt" version="1.1" viewBox="0 0 872.35972 296.39952" width="872.35972pt" xmlns="http://www.w3.org/2000/svg" xmlns:xlink="http://www.w3.org/1999/xlink">
 <defs>
  <style type="text/css">
*{stroke-linecap:butt;stroke-linejoin:round;}
  </style>
 </defs>
 <g id="figure_1">
  <g id="patch_1">
   <path d="M 0 296.39952 
L 872.35972 296.39952 
L 872.35972 0 
L 0 0 
z
" style="fill:#ffffff;"/>
  </g>
  <g id="axes_1">
   <g id="patch_2">
    <path d="M 9.329978 131.114207 
L 418.304297 131.114207 
L 418.304297 21.008523 
L 9.329978 21.008523 
z
" style="fill:#eaeaf2;"/>
   </g>
   <g id="matplotlib.axis_1">
    <g id="xtick_1">
     <g id="line2d_1">
      <path clip-path="url(#pe0083135bc)" d="M 38.121328 131.114207 
L 38.121328 21.008523 
" style="fill:none;stroke:#ffffff;stroke-linecap:round;"/>
     </g>
     <g id="line2d_2"/>
     <g id="text_1">
      <!-- −0.4 -->
      <defs>
       <path d="M 52.828125 31.203125 
L 5.5625 31.203125 
L 5.5625 39.40625 
L 52.828125 39.40625 
z
" id="ArialMT-8722"/>
       <path d="M 4.15625 35.296875 
Q 4.15625 48 6.765625 55.734375 
Q 9.375 63.484375 14.515625 67.671875 
Q 19.671875 71.875 27.484375 71.875 
Q 33.25 71.875 37.59375 69.546875 
Q 41.9375 67.234375 44.765625 62.859375 
Q 47.609375 58.5 49.21875 52.21875 
Q 50.828125 45.953125 50.828125 35.296875 
Q 50.828125 22.703125 48.234375 14.96875 
Q 45.65625 7.234375 40.5 3 
Q 35.359375 -1.21875 27.484375 -1.21875 
Q 17.140625 -1.21875 11.234375 6.203125 
Q 4.15625 15.140625 4.15625 35.296875 
z
M 13.1875 35.296875 
Q 13.1875 17.671875 17.3125 11.828125 
Q 21.4375 6 27.484375 6 
Q 33.546875 6 37.671875 11.859375 
Q 41.796875 17.71875 41.796875 35.296875 
Q 41.796875 52.984375 37.671875 58.78125 
Q 33.546875 64.59375 27.390625 64.59375 
Q 21.34375 64.59375 17.71875 59.46875 
Q 13.1875 52.9375 13.1875 35.296875 
z
" id="ArialMT-48"/>
       <path d="M 9.078125 0 
L 9.078125 10.015625 
L 19.09375 10.015625 
L 19.09375 0 
z
" id="ArialMT-46"/>
       <path d="M 32.328125 0 
L 32.328125 17.140625 
L 1.265625 17.140625 
L 1.265625 25.203125 
L 33.9375 71.578125 
L 41.109375 71.578125 
L 41.109375 25.203125 
L 50.78125 25.203125 
L 50.78125 17.140625 
L 41.109375 17.140625 
L 41.109375 0 
z
M 32.328125 25.203125 
L 32.328125 57.46875 
L 9.90625 25.203125 
z
" id="ArialMT-52"/>
      </defs>
      <g style="fill:#262626;" transform="translate(28.251016 141.77202)scale(0.1 -0.1)">
       <use xlink:href="#ArialMT-8722"/>
       <use x="58.398438" xlink:href="#ArialMT-48"/>
       <use x="114.013672" xlink:href="#ArialMT-46"/>
       <use x="141.796875" xlink:href="#ArialMT-52"/>
      </g>
     </g>
    </g>
    <g id="xtick_2">
     <g id="line2d_3">
      <path clip-path="url(#pe0083135bc)" d="M 120.651061 131.114207 
L 120.651061 21.008523 
" style="fill:none;stroke:#ffffff;stroke-linecap:round;"/>
     </g>
     <g id="line2d_4"/>
     <g id="text_2">
      <!-- −0.2 -->
      <defs>
       <path d="M 50.34375 8.453125 
L 50.34375 0 
L 3.03125 0 
Q 2.9375 3.171875 4.046875 6.109375 
Q 5.859375 10.9375 9.828125 15.625 
Q 13.8125 20.3125 21.34375 26.46875 
Q 33.015625 36.03125 37.109375 41.625 
Q 41.21875 47.21875 41.21875 52.203125 
Q 41.21875 57.421875 37.46875 61 
Q 33.734375 64.59375 27.734375 64.59375 
Q 21.390625 64.59375 17.578125 60.78125 
Q 13.765625 56.984375 13.71875 50.25 
L 4.6875 51.171875 
Q 5.609375 61.28125 11.65625 66.578125 
Q 17.71875 71.875 27.9375 71.875 
Q 38.234375 71.875 44.234375 66.15625 
Q 50.25 60.453125 50.25 52 
Q 50.25 47.703125 48.484375 43.546875 
Q 46.734375 39.40625 42.65625 34.8125 
Q 38.578125 30.21875 29.109375 22.21875 
Q 21.1875 15.578125 18.9375 13.203125 
Q 16.703125 10.84375 15.234375 8.453125 
z
" id="ArialMT-50"/>
      </defs>
      <g style="fill:#262626;" transform="translate(110.780749 141.77202)scale(0.1 -0.1)">
       <use xlink:href="#ArialMT-8722"/>
       <use x="58.398438" xlink:href="#ArialMT-48"/>
       <use x="114.013672" xlink:href="#ArialMT-46"/>
       <use x="141.796875" xlink:href="#ArialMT-50"/>
      </g>
     </g>
    </g>
    <g id="xtick_3">
     <g id="line2d_5">
      <path clip-path="url(#pe0083135bc)" d="M 203.180794 131.114207 
L 203.180794 21.008523 
" style="fill:none;stroke:#ffffff;stroke-linecap:round;"/>
     </g>
     <g id="line2d_6"/>
     <g id="text_3">
      <!-- 0.0 -->
      <g style="fill:#262626;" transform="translate(196.230794 141.77202)scale(0.1 -0.1)">
       <use xlink:href="#ArialMT-48"/>
       <use x="55.615234" xlink:href="#ArialMT-46"/>
       <use x="83.398438" xlink:href="#ArialMT-48"/>
      </g>
     </g>
    </g>
    <g id="xtick_4">
     <g id="line2d_7">
      <path clip-path="url(#pe0083135bc)" d="M 285.710527 131.114207 
L 285.710527 21.008523 
" style="fill:none;stroke:#ffffff;stroke-linecap:round;"/>
     </g>
     <g id="line2d_8"/>
     <g id="text_4">
      <!-- 0.2 -->
      <g style="fill:#262626;" transform="translate(278.760527 141.77202)scale(0.1 -0.1)">
       <use xlink:href="#ArialMT-48"/>
       <use x="55.615234" xlink:href="#ArialMT-46"/>
       <use x="83.398438" xlink:href="#ArialMT-50"/>
      </g>
     </g>
    </g>
    <g id="xtick_5">
     <g id="line2d_9">
      <path clip-path="url(#pe0083135bc)" d="M 368.24026 131.114207 
L 368.24026 21.008523 
" style="fill:none;stroke:#ffffff;stroke-linecap:round;"/>
     </g>
     <g id="line2d_10"/>
     <g id="text_5">
      <!-- 0.4 -->
      <g style="fill:#262626;" transform="translate(361.29026 141.77202)scale(0.1 -0.1)">
       <use xlink:href="#ArialMT-48"/>
       <use x="55.615234" xlink:href="#ArialMT-46"/>
       <use x="83.398438" xlink:href="#ArialMT-52"/>
      </g>
     </g>
    </g>
   </g>
   <g id="matplotlib.axis_2"/>
   <g id="PolyCollection_1">
    <defs>
     <path d="M 27.91972 -165.285313 
L 27.91972 -170.636509 
L 29.788036 -170.636509 
L 31.656352 -170.619041 
L 33.524667 -170.581275 
L 35.392983 -170.538398 
L 37.261299 -170.470148 
L 39.129615 -170.419002 
L 40.99793 -170.391473 
L 42.866246 -170.404586 
L 44.734562 -170.475999 
L 46.602878 -170.56721 
L 48.471193 -170.730049 
L 50.339509 -170.961081 
L 52.207825 -171.265007 
L 54.076141 -171.632273 
L 55.944456 -172.059975 
L 57.812772 -172.561449 
L 59.681088 -173.127113 
L 61.549404 -173.772068 
L 63.417719 -174.452594 
L 65.286035 -175.182865 
L 67.154351 -175.966619 
L 69.022667 -176.801675 
L 70.890982 -177.660944 
L 72.759298 -178.562854 
L 74.627614 -179.500579 
L 76.49593 -180.441754 
L 78.364245 -181.417793 
L 80.232561 -182.381896 
L 82.100877 -183.339042 
L 83.969193 -184.274843 
L 85.837508 -185.213087 
L 87.705824 -186.093144 
L 89.57414 -186.927602 
L 91.442456 -187.731269 
L 93.310771 -188.492571 
L 95.179087 -189.236395 
L 97.047403 -189.924395 
L 98.915719 -190.586134 
L 100.784034 -191.233696 
L 102.65235 -191.920948 
L 104.520666 -192.648064 
L 106.388982 -193.421948 
L 108.257297 -194.265425 
L 110.125613 -195.20067 
L 111.993929 -196.239647 
L 113.862245 -197.367523 
L 115.73056 -198.600666 
L 117.598876 -199.925235 
L 119.467192 -201.38884 
L 121.335508 -202.869452 
L 123.203823 -204.398925 
L 125.072139 -205.965432 
L 126.940455 -207.564621 
L 128.808771 -209.154692 
L 130.677086 -210.747907 
L 132.545402 -212.296379 
L 134.413718 -213.806352 
L 136.282034 -215.249874 
L 138.15035 -216.6853 
L 140.018665 -218.168095 
L 141.886981 -219.637181 
L 143.755297 -221.092142 
L 145.623613 -222.627364 
L 147.491928 -224.222617 
L 149.360244 -225.887639 
L 151.22856 -227.624334 
L 153.096876 -229.475822 
L 154.965191 -231.431519 
L 156.833507 -233.449001 
L 158.701823 -235.544892 
L 160.570139 -237.682985 
L 162.438454 -239.881889 
L 164.30677 -242.137658 
L 166.175086 -244.376001 
L 168.043402 -246.615417 
L 169.911717 -248.828721 
L 171.780033 -250.993478 
L 173.648349 -253.123386 
L 175.516665 -255.134802 
L 177.38498 -257.1246 
L 179.253296 -258.967353 
L 181.121612 -260.723857 
L 182.989928 -262.360993 
L 184.858243 -263.873077 
L 186.726559 -265.235049 
L 188.594875 -266.442329 
L 190.463191 -267.518655 
L 192.331506 -268.422179 
L 194.199822 -269.169609 
L 196.068138 -269.692896 
L 197.936454 -270.008698 
L 199.804769 -270.147869 
L 201.673085 -270.089564 
L 203.541401 -269.851803 
L 205.409717 -269.426081 
L 207.278032 -268.804308 
L 209.146348 -268.06489 
L 211.014664 -267.18866 
L 212.88298 -266.164863 
L 214.751295 -265.120847 
L 216.619611 -264.026974 
L 218.487927 -262.889346 
L 220.356243 -261.790034 
L 222.224558 -260.719689 
L 224.092874 -259.716067 
L 225.96119 -258.803028 
L 227.829506 -257.993431 
L 229.697821 -257.306929 
L 231.566137 -256.716025 
L 233.434453 -256.222328 
L 235.302769 -255.848633 
L 237.171084 -255.557887 
L 239.0394 -255.29223 
L 240.907716 -255.087843 
L 242.776032 -254.883566 
L 244.644347 -254.664674 
L 246.512663 -254.378758 
L 248.380979 -254.013734 
L 250.249295 -253.6171 
L 252.11761 -253.10331 
L 253.985926 -252.450275 
L 255.854242 -251.640915 
L 257.722558 -250.684593 
L 259.590873 -249.588468 
L 261.459189 -248.36801 
L 263.327505 -246.991594 
L 265.195821 -245.453294 
L 267.064136 -243.779981 
L 268.932452 -242.034187 
L 270.800768 -240.136692 
L 272.669084 -238.228084 
L 274.537399 -236.267856 
L 276.405715 -234.280324 
L 278.274031 -232.288365 
L 280.142347 -230.369194 
L 282.010662 -228.502487 
L 283.878978 -226.72613 
L 285.747294 -225.075977 
L 287.61561 -223.513674 
L 289.483925 -222.080161 
L 291.352241 -220.788404 
L 293.220557 -219.618864 
L 295.088873 -218.532173 
L 296.957188 -217.537382 
L 298.825504 -216.600619 
L 300.69382 -215.747713 
L 302.562136 -214.894248 
L 304.430451 -214.091561 
L 306.298767 -213.280078 
L 308.167083 -212.459183 
L 310.035399 -211.626934 
L 311.903714 -210.809243 
L 313.77203 -209.937186 
L 315.640346 -209.083767 
L 317.508662 -208.22939 
L 319.376977 -207.370307 
L 321.245293 -206.498612 
L 323.113609 -205.60405 
L 324.981925 -204.670309 
L 326.85024 -203.706587 
L 328.718556 -202.693128 
L 330.586872 -201.651612 
L 332.455188 -200.538011 
L 334.323503 -199.344315 
L 336.191819 -198.083789 
L 338.060135 -196.739212 
L 339.928451 -195.324654 
L 341.796766 -193.848574 
L 343.665082 -192.326094 
L 345.533398 -190.759615 
L 347.401714 -189.20376 
L 349.270029 -187.647163 
L 351.138345 -186.10348 
L 353.006661 -184.619414 
L 354.874977 -183.177506 
L 356.743293 -181.841809 
L 358.611608 -180.600838 
L 360.479924 -179.453172 
L 362.34824 -178.415521 
L 364.216556 -177.486023 
L 366.084871 -176.637305 
L 367.953187 -175.922328 
L 369.821503 -175.30934 
L 371.689819 -174.790617 
L 373.558134 -174.347127 
L 375.42645 -173.995645 
L 377.294766 -173.728091 
L 379.163082 -173.508206 
L 381.031397 -173.364384 
L 382.899713 -173.275929 
L 384.768029 -173.235257 
L 386.636345 -173.209401 
L 388.50466 -173.236652 
L 390.372976 -173.25958 
L 392.241292 -173.314145 
L 394.109608 -173.369026 
L 395.977923 -173.412385 
L 397.846239 -173.438748 
L 399.714555 -173.458802 
L 399.714555 -165.285313 
L 399.714555 -165.285313 
L 397.846239 -165.285313 
L 395.977923 -165.285313 
L 394.109608 -165.285313 
L 392.241292 -165.285313 
L 390.372976 -165.285313 
L 388.50466 -165.285313 
L 386.636345 -165.285313 
L 384.768029 -165.285313 
L 382.899713 -165.285313 
L 381.031397 -165.285313 
L 379.163082 -165.285313 
L 377.294766 -165.285313 
L 375.42645 -165.285313 
L 373.558134 -165.285313 
L 371.689819 -165.285313 
L 369.821503 -165.285313 
L 367.953187 -165.285313 
L 366.084871 -165.285313 
L 364.216556 -165.285313 
L 362.34824 -165.285313 
L 360.479924 -165.285313 
L 358.611608 -165.285313 
L 356.743293 -165.285313 
L 354.874977 -165.285313 
L 353.006661 -165.285313 
L 351.138345 -165.285313 
L 349.270029 -165.285313 
L 347.401714 -165.285313 
L 345.533398 -165.285313 
L 343.665082 -165.285313 
L 341.796766 -165.285313 
L 339.928451 -165.285313 
L 338.060135 -165.285313 
L 336.191819 -165.285313 
L 334.323503 -165.285313 
L 332.455188 -165.285313 
L 330.586872 -165.285313 
L 328.718556 -165.285313 
L 326.85024 -165.285313 
L 324.981925 -165.285313 
L 323.113609 -165.285313 
L 321.245293 -165.285313 
L 319.376977 -165.285313 
L 317.508662 -165.285313 
L 315.640346 -165.285313 
L 313.77203 -165.285313 
L 311.903714 -165.285313 
L 310.035399 -165.285313 
L 308.167083 -165.285313 
L 306.298767 -165.285313 
L 304.430451 -165.285313 
L 302.562136 -165.285313 
L 300.69382 -165.285313 
L 298.825504 -165.285313 
L 296.957188 -165.285313 
L 295.088873 -165.285313 
L 293.220557 -165.285313 
L 291.352241 -165.285313 
L 289.483925 -165.285313 
L 287.61561 -165.285313 
L 285.747294 -165.285313 
L 283.878978 -165.285313 
L 282.010662 -165.285313 
L 280.142347 -165.285313 
L 278.274031 -165.285313 
L 276.405715 -165.285313 
L 274.537399 -165.285313 
L 272.669084 -165.285313 
L 270.800768 -165.285313 
L 268.932452 -165.285313 
L 267.064136 -165.285313 
L 265.195821 -165.285313 
L 263.327505 -165.285313 
L 261.459189 -165.285313 
L 259.590873 -165.285313 
L 257.722558 -165.285313 
L 255.854242 -165.285313 
L 253.985926 -165.285313 
L 252.11761 -165.285313 
L 250.249295 -165.285313 
L 248.380979 -165.285313 
L 246.512663 -165.285313 
L 244.644347 -165.285313 
L 242.776032 -165.285313 
L 240.907716 -165.285313 
L 239.0394 -165.285313 
L 237.171084 -165.285313 
L 235.302769 -165.285313 
L 233.434453 -165.285313 
L 231.566137 -165.285313 
L 229.697821 -165.285313 
L 227.829506 -165.285313 
L 225.96119 -165.285313 
L 224.092874 -165.285313 
L 222.224558 -165.285313 
L 220.356243 -165.285313 
L 218.487927 -165.285313 
L 216.619611 -165.285313 
L 214.751295 -165.285313 
L 212.88298 -165.285313 
L 211.014664 -165.285313 
L 209.146348 -165.285313 
L 207.278032 -165.285313 
L 205.409717 -165.285313 
L 203.541401 -165.285313 
L 201.673085 -165.285313 
L 199.804769 -165.285313 
L 197.936454 -165.285313 
L 196.068138 -165.285313 
L 194.199822 -165.285313 
L 192.331506 -165.285313 
L 190.463191 -165.285313 
L 188.594875 -165.285313 
L 186.726559 -165.285313 
L 184.858243 -165.285313 
L 182.989928 -165.285313 
L 181.121612 -165.285313 
L 179.253296 -165.285313 
L 177.38498 -165.285313 
L 175.516665 -165.285313 
L 173.648349 -165.285313 
L 171.780033 -165.285313 
L 169.911717 -165.285313 
L 168.043402 -165.285313 
L 166.175086 -165.285313 
L 164.30677 -165.285313 
L 162.438454 -165.285313 
L 160.570139 -165.285313 
L 158.701823 -165.285313 
L 156.833507 -165.285313 
L 154.965191 -165.285313 
L 153.096876 -165.285313 
L 151.22856 -165.285313 
L 149.360244 -165.285313 
L 147.491928 -165.285313 
L 145.623613 -165.285313 
L 143.755297 -165.285313 
L 141.886981 -165.285313 
L 140.018665 -165.285313 
L 138.15035 -165.285313 
L 136.282034 -165.285313 
L 134.413718 -165.285313 
L 132.545402 -165.285313 
L 130.677086 -165.285313 
L 128.808771 -165.285313 
L 126.940455 -165.285313 
L 125.072139 -165.285313 
L 123.203823 -165.285313 
L 121.335508 -165.285313 
L 119.467192 -165.285313 
L 117.598876 -165.285313 
L 115.73056 -165.285313 
L 113.862245 -165.285313 
L 111.993929 -165.285313 
L 110.125613 -165.285313 
L 108.257297 -165.285313 
L 106.388982 -165.285313 
L 104.520666 -165.285313 
L 102.65235 -165.285313 
L 100.784034 -165.285313 
L 98.915719 -165.285313 
L 97.047403 -165.285313 
L 95.179087 -165.285313 
L 93.310771 -165.285313 
L 91.442456 -165.285313 
L 89.57414 -165.285313 
L 87.705824 -165.285313 
L 85.837508 -165.285313 
L 83.969193 -165.285313 
L 82.100877 -165.285313 
L 80.232561 -165.285313 
L 78.364245 -165.285313 
L 76.49593 -165.285313 
L 74.627614 -165.285313 
L 72.759298 -165.285313 
L 70.890982 -165.285313 
L 69.022667 -165.285313 
L 67.154351 -165.285313 
L 65.286035 -165.285313 
L 63.417719 -165.285313 
L 61.549404 -165.285313 
L 59.681088 -165.285313 
L 57.812772 -165.285313 
L 55.944456 -165.285313 
L 54.076141 -165.285313 
L 52.207825 -165.285313 
L 50.339509 -165.285313 
L 48.471193 -165.285313 
L 46.602878 -165.285313 
L 44.734562 -165.285313 
L 42.866246 -165.285313 
L 40.99793 -165.285313 
L 39.129615 -165.285313 
L 37.261299 -165.285313 
L 35.392983 -165.285313 
L 33.524667 -165.285313 
L 31.656352 -165.285313 
L 29.788036 -165.285313 
L 27.91972 -165.285313 
z
" id="m15f9fe39d2" style="stroke:#1f77b4;stroke-opacity:0;"/>
    </defs>
    <g clip-path="url(#pe0083135bc)">
     <use style="fill:#1f77b4;fill-opacity:0;stroke:#1f77b4;stroke-opacity:0;" x="0" xlink:href="#m15f9fe39d2" y="296.39952"/>
    </g>
   </g>
   <g id="line2d_11">
    <path clip-path="url(#pe0083135bc)" d="M 27.91972 125.763011 
L 35.392983 125.861122 
L 40.99793 126.008047 
L 44.734562 125.923521 
L 48.471193 125.669471 
L 52.207825 125.134513 
L 55.944456 124.339545 
L 59.681088 123.272407 
L 63.417719 121.946926 
L 67.154351 120.432901 
L 72.759298 117.836666 
L 89.57414 109.471918 
L 95.179087 107.163125 
L 106.388982 102.977572 
L 110.125613 101.19885 
L 113.862245 99.031997 
L 117.598876 96.474285 
L 123.203823 92.000595 
L 136.282034 81.149646 
L 143.755297 75.307378 
L 147.491928 72.176903 
L 151.22856 68.775186 
L 154.965191 64.968001 
L 158.701823 60.854628 
L 162.438454 56.517631 
L 171.780033 45.406042 
L 175.516665 41.264718 
L 179.253296 37.432167 
L 182.989928 34.038527 
L 184.858243 32.526443 
L 186.726559 31.164471 
L 190.463191 28.880865 
L 192.331506 27.977341 
L 194.199822 27.229911 
L 196.068138 26.706624 
L 197.936454 26.390822 
L 199.804769 26.251651 
L 201.673085 26.309956 
L 203.541401 26.547717 
L 205.409717 26.973439 
L 207.278032 27.595212 
L 209.146348 28.33463 
L 211.014664 29.21086 
L 216.619611 32.372546 
L 222.224558 35.679831 
L 225.96119 37.596492 
L 227.829506 38.406089 
L 231.566137 39.683495 
L 233.434453 40.177192 
L 237.171084 40.841633 
L 240.907716 41.311677 
L 246.512663 42.020762 
L 250.249295 42.78242 
L 252.11761 43.29621 
L 253.985926 43.949245 
L 255.854242 44.758605 
L 257.722558 45.714927 
L 261.459189 48.03151 
L 263.327505 49.407926 
L 267.064136 52.619539 
L 270.800768 56.262828 
L 276.405715 62.119196 
L 280.142347 66.030326 
L 283.878978 69.67339 
L 287.61561 72.885846 
L 289.483925 74.319359 
L 293.220557 76.780656 
L 296.957188 78.862138 
L 300.69382 80.651807 
L 306.298767 83.119442 
L 315.640346 87.315753 
L 323.113609 90.79547 
L 328.718556 93.706392 
L 332.455188 95.861509 
L 336.191819 98.315731 
L 339.928451 101.074866 
L 345.533398 105.639905 
L 353.006661 111.780106 
L 356.743293 114.557711 
L 360.479924 116.946348 
L 364.216556 118.913497 
L 366.084871 119.762215 
L 369.821503 121.09018 
L 373.558134 122.052393 
L 377.294766 122.671429 
L 381.031397 123.035136 
L 386.636345 123.190119 
L 399.714555 122.940718 
L 399.714555 122.940718 
" style="fill:none;stroke:#1f77b4;stroke-linecap:round;stroke-width:1.363636;"/>
   </g>
   <g id="patch_3">
    <path d="M 9.329978 131.114207 
L 9.329978 21.008523 
" style="fill:none;"/>
   </g>
   <g id="patch_4">
    <path d="M 418.304297 131.114207 
L 418.304297 21.008523 
" style="fill:none;"/>
   </g>
   <g id="patch_5">
    <path d="M 9.329978 131.114207 
L 418.304297 131.114207 
" style="fill:none;"/>
   </g>
   <g id="patch_6">
    <path d="M 9.329978 21.008523 
L 418.304297 21.008523 
" style="fill:none;"/>
   </g>
   <g id="text_6">
    <!-- mu -->
    <defs>
     <path d="M 6.59375 0 
L 6.59375 51.859375 
L 14.453125 51.859375 
L 14.453125 44.578125 
Q 16.890625 48.390625 20.9375 50.703125 
Q 25 53.03125 30.171875 53.03125 
Q 35.9375 53.03125 39.625 50.640625 
Q 43.3125 48.25 44.828125 43.953125 
Q 50.984375 53.03125 60.84375 53.03125 
Q 68.5625 53.03125 72.703125 48.75 
Q 76.859375 44.484375 76.859375 35.59375 
L 76.859375 0 
L 68.109375 0 
L 68.109375 32.671875 
Q 68.109375 37.9375 67.25 40.25 
Q 66.40625 42.578125 64.15625 43.984375 
Q 61.921875 45.40625 58.890625 45.40625 
Q 53.421875 45.40625 49.796875 41.765625 
Q 46.1875 38.140625 46.1875 30.125 
L 46.1875 0 
L 37.40625 0 
L 37.40625 33.6875 
Q 37.40625 39.546875 35.25 42.46875 
Q 33.109375 45.40625 28.21875 45.40625 
Q 24.515625 45.40625 21.359375 43.453125 
Q 18.21875 41.5 16.796875 37.734375 
Q 15.375 33.984375 15.375 26.90625 
L 15.375 0 
z
" id="ArialMT-109"/>
     <path d="M 40.578125 0 
L 40.578125 7.625 
Q 34.515625 -1.171875 24.125 -1.171875 
Q 19.53125 -1.171875 15.546875 0.578125 
Q 11.578125 2.34375 9.640625 5 
Q 7.71875 7.671875 6.9375 11.53125 
Q 6.390625 14.109375 6.390625 19.734375 
L 6.390625 51.859375 
L 15.1875 51.859375 
L 15.1875 23.09375 
Q 15.1875 16.21875 15.71875 13.8125 
Q 16.546875 10.359375 19.234375 8.375 
Q 21.921875 6.390625 25.875 6.390625 
Q 29.828125 6.390625 33.296875 8.421875 
Q 36.765625 10.453125 38.203125 13.9375 
Q 39.65625 17.4375 39.65625 24.078125 
L 39.65625 51.859375 
L 48.4375 51.859375 
L 48.4375 0 
z
" id="ArialMT-117"/>
    </defs>
    <g style="fill:#262626;" transform="translate(206.240433 15.008523)scale(0.109091 -0.109091)">
     <use xlink:href="#ArialMT-109"/>
     <use x="83.300781" xlink:href="#ArialMT-117"/>
    </g>
   </g>
  </g>
  <g id="axes_2">
   <g id="patch_7">
    <path d="M 456.185402 131.114207 
L 865.15972 131.114207 
L 865.15972 21.008523 
L 456.185402 21.008523 
z
" style="fill:#eaeaf2;"/>
   </g>
   <g id="matplotlib.axis_3">
    <g id="xtick_6">
     <g id="line2d_12">
      <path clip-path="url(#p45c6b39fd2)" d="M 456.185402 131.114207 
L 456.185402 21.008523 
" style="fill:none;stroke:#ffffff;stroke-linecap:round;"/>
     </g>
     <g id="line2d_13"/>
     <g id="text_7">
      <!-- 0 -->
      <g style="fill:#262626;" transform="translate(453.404933 141.77202)scale(0.1 -0.1)">
       <use xlink:href="#ArialMT-48"/>
      </g>
     </g>
    </g>
    <g id="xtick_7">
     <g id="line2d_14">
      <path clip-path="url(#p45c6b39fd2)" d="M 538.144183 131.114207 
L 538.144183 21.008523 
" style="fill:none;stroke:#ffffff;stroke-linecap:round;"/>
     </g>
     <g id="line2d_15"/>
     <g id="text_8">
      <!-- 100 -->
      <defs>
       <path d="M 37.25 0 
L 28.46875 0 
L 28.46875 56 
Q 25.296875 52.984375 20.140625 49.953125 
Q 14.984375 46.921875 10.890625 45.40625 
L 10.890625 53.90625 
Q 18.265625 57.375 23.78125 62.296875 
Q 29.296875 67.234375 31.59375 71.875 
L 37.25 71.875 
z
" id="ArialMT-49"/>
      </defs>
      <g style="fill:#262626;" transform="translate(529.802776 141.77202)scale(0.1 -0.1)">
       <use xlink:href="#ArialMT-49"/>
       <use x="55.615234" xlink:href="#ArialMT-48"/>
       <use x="111.230469" xlink:href="#ArialMT-48"/>
      </g>
     </g>
    </g>
    <g id="xtick_8">
     <g id="line2d_16">
      <path clip-path="url(#p45c6b39fd2)" d="M 620.102964 131.114207 
L 620.102964 21.008523 
" style="fill:none;stroke:#ffffff;stroke-linecap:round;"/>
     </g>
     <g id="line2d_17"/>
     <g id="text_9">
      <!-- 200 -->
      <g style="fill:#262626;" transform="translate(611.761558 141.77202)scale(0.1 -0.1)">
       <use xlink:href="#ArialMT-50"/>
       <use x="55.615234" xlink:href="#ArialMT-48"/>
       <use x="111.230469" xlink:href="#ArialMT-48"/>
      </g>
     </g>
    </g>
    <g id="xtick_9">
     <g id="line2d_18">
      <path clip-path="url(#p45c6b39fd2)" d="M 702.061745 131.114207 
L 702.061745 21.008523 
" style="fill:none;stroke:#ffffff;stroke-linecap:round;"/>
     </g>
     <g id="line2d_19"/>
     <g id="text_10">
      <!-- 300 -->
      <defs>
       <path d="M 4.203125 18.890625 
L 12.984375 20.0625 
Q 14.5 12.59375 18.140625 9.296875 
Q 21.78125 6 27 6 
Q 33.203125 6 37.46875 10.296875 
Q 41.75 14.59375 41.75 20.953125 
Q 41.75 27 37.796875 30.921875 
Q 33.84375 34.859375 27.734375 34.859375 
Q 25.25 34.859375 21.53125 33.890625 
L 22.515625 41.609375 
Q 23.390625 41.5 23.921875 41.5 
Q 29.546875 41.5 34.03125 44.421875 
Q 38.53125 47.359375 38.53125 53.46875 
Q 38.53125 58.296875 35.25 61.46875 
Q 31.984375 64.65625 26.8125 64.65625 
Q 21.6875 64.65625 18.265625 61.421875 
Q 14.84375 58.203125 13.875 51.765625 
L 5.078125 53.328125 
Q 6.6875 62.15625 12.390625 67.015625 
Q 18.109375 71.875 26.609375 71.875 
Q 32.46875 71.875 37.390625 69.359375 
Q 42.328125 66.84375 44.9375 62.5 
Q 47.5625 58.15625 47.5625 53.265625 
Q 47.5625 48.640625 45.0625 44.828125 
Q 42.578125 41.015625 37.703125 38.765625 
Q 44.046875 37.3125 47.5625 32.6875 
Q 51.078125 28.078125 51.078125 21.140625 
Q 51.078125 11.765625 44.234375 5.25 
Q 37.40625 -1.265625 26.953125 -1.265625 
Q 17.53125 -1.265625 11.296875 4.34375 
Q 5.078125 9.96875 4.203125 18.890625 
z
" id="ArialMT-51"/>
      </defs>
      <g style="fill:#262626;" transform="translate(693.720339 141.77202)scale(0.1 -0.1)">
       <use xlink:href="#ArialMT-51"/>
       <use x="55.615234" xlink:href="#ArialMT-48"/>
       <use x="111.230469" xlink:href="#ArialMT-48"/>
      </g>
     </g>
    </g>
    <g id="xtick_10">
     <g id="line2d_20">
      <path clip-path="url(#p45c6b39fd2)" d="M 784.020526 131.114207 
L 784.020526 21.008523 
" style="fill:none;stroke:#ffffff;stroke-linecap:round;"/>
     </g>
     <g id="line2d_21"/>
     <g id="text_11">
      <!-- 400 -->
      <g style="fill:#262626;" transform="translate(775.67912 141.77202)scale(0.1 -0.1)">
       <use xlink:href="#ArialMT-52"/>
       <use x="55.615234" xlink:href="#ArialMT-48"/>
       <use x="111.230469" xlink:href="#ArialMT-48"/>
      </g>
     </g>
    </g>
   </g>
   <g id="matplotlib.axis_4">
    <g id="ytick_1">
     <g id="line2d_22">
      <path clip-path="url(#p45c6b39fd2)" d="M 456.185402 123.362886 
L 865.15972 123.362886 
" style="fill:none;stroke:#ffffff;stroke-linecap:round;"/>
     </g>
     <g id="line2d_23"/>
     <g id="text_12">
      <!-- −0.4 -->
      <g style="fill:#262626;" transform="translate(432.944777 126.941793)scale(0.1 -0.1)">
       <use xlink:href="#ArialMT-8722"/>
       <use x="58.398438" xlink:href="#ArialMT-48"/>
       <use x="114.013672" xlink:href="#ArialMT-46"/>
       <use x="141.796875" xlink:href="#ArialMT-52"/>
      </g>
     </g>
    </g>
    <g id="ytick_2">
     <g id="line2d_24">
      <path clip-path="url(#p45c6b39fd2)" d="M 456.185402 101.143905 
L 865.15972 101.143905 
" style="fill:none;stroke:#ffffff;stroke-linecap:round;"/>
     </g>
     <g id="line2d_25"/>
     <g id="text_13">
      <!-- −0.2 -->
      <g style="fill:#262626;" transform="translate(432.944777 104.722811)scale(0.1 -0.1)">
       <use xlink:href="#ArialMT-8722"/>
       <use x="58.398438" xlink:href="#ArialMT-48"/>
       <use x="114.013672" xlink:href="#ArialMT-46"/>
       <use x="141.796875" xlink:href="#ArialMT-50"/>
      </g>
     </g>
    </g>
    <g id="ytick_3">
     <g id="line2d_26">
      <path clip-path="url(#p45c6b39fd2)" d="M 456.185402 78.924924 
L 865.15972 78.924924 
" style="fill:none;stroke:#ffffff;stroke-linecap:round;"/>
     </g>
     <g id="line2d_27"/>
     <g id="text_14">
      <!-- 0.0 -->
      <g style="fill:#262626;" transform="translate(438.785402 82.50383)scale(0.1 -0.1)">
       <use xlink:href="#ArialMT-48"/>
       <use x="55.615234" xlink:href="#ArialMT-46"/>
       <use x="83.398438" xlink:href="#ArialMT-48"/>
      </g>
     </g>
    </g>
    <g id="ytick_4">
     <g id="line2d_28">
      <path clip-path="url(#p45c6b39fd2)" d="M 456.185402 56.705942 
L 865.15972 56.705942 
" style="fill:none;stroke:#ffffff;stroke-linecap:round;"/>
     </g>
     <g id="line2d_29"/>
     <g id="text_15">
      <!-- 0.2 -->
      <g style="fill:#262626;" transform="translate(438.785402 60.284848)scale(0.1 -0.1)">
       <use xlink:href="#ArialMT-48"/>
       <use x="55.615234" xlink:href="#ArialMT-46"/>
       <use x="83.398438" xlink:href="#ArialMT-50"/>
      </g>
     </g>
    </g>
    <g id="ytick_5">
     <g id="line2d_30">
      <path clip-path="url(#p45c6b39fd2)" d="M 456.185402 34.486961 
L 865.15972 34.486961 
" style="fill:none;stroke:#ffffff;stroke-linecap:round;"/>
     </g>
     <g id="line2d_31"/>
     <g id="text_16">
      <!-- 0.4 -->
      <g style="fill:#262626;" transform="translate(438.785402 38.065867)scale(0.1 -0.1)">
       <use xlink:href="#ArialMT-48"/>
       <use x="55.615234" xlink:href="#ArialMT-46"/>
       <use x="83.398438" xlink:href="#ArialMT-52"/>
      </g>
     </g>
    </g>
   </g>
   <g id="line2d_32">
    <path clip-path="url(#p45c6b39fd2)" d="M 456.185402 52.118567 
L 457.004989 107.665041 
L 457.824577 59.452502 
L 458.644165 76.671641 
L 459.463753 65.07088 
L 460.283341 76.423036 
L 461.102928 63.276988 
L 461.922516 59.238414 
L 462.742104 86.831486 
L 463.561692 98.997177 
L 464.38128 46.685702 
L 465.200867 82.50246 
L 466.020455 52.305664 
L 466.840043 65.482793 
L 467.659631 93.610617 
L 468.479219 87.002154 
L 469.298807 67.763682 
L 470.118394 69.431801 
L 470.937982 87.918039 
L 471.75757 56.560144 
L 472.577158 89.352993 
L 473.396746 89.727319 
L 474.216333 89.198239 
L 475.035921 93.306271 
L 475.855509 52.497901 
L 476.675097 67.436441 
L 477.494685 62.240513 
L 478.314272 53.180623 
L 479.13386 86.941235 
L 479.953448 96.630398 
L 480.773036 60.425107 
L 481.592624 91.703515 
L 482.412212 87.233792 
L 483.231799 58.514883 
L 484.051387 81.610363 
L 484.870975 109.113033 
L 485.690563 68.0296 
L 486.510151 86.296895 
L 487.329738 77.316437 
L 488.149326 85.432196 
L 488.968914 77.25131 
L 489.788502 39.169889 
L 490.60809 101.818964 
L 491.427677 68.563505 
L 492.247265 61.108972 
L 493.066853 68.888295 
L 493.886441 83.982802 
L 494.706029 91.330603 
L 495.525617 81.616096 
L 496.345204 64.936825 
L 497.164792 66.528341 
L 498.803968 84.273644 
L 499.623556 102.359656 
L 500.443143 97.375004 
L 501.262731 76.853929 
L 502.082319 76.74691 
L 502.901907 63.803561 
L 503.721495 45.284099 
L 504.541082 99.940455 
L 505.36067 80.535778 
L 506.180258 42.755378 
L 506.999846 83.022681 
L 507.819434 70.479345 
L 508.639021 89.456442 
L 509.458609 82.433992 
L 510.278197 59.557262 
L 511.097785 47.630826 
L 511.917373 56.580831 
L 512.736961 83.362202 
L 513.556548 104.963087 
L 514.376136 74.99931 
L 515.195724 78.300096 
L 516.015312 86.589652 
L 516.8349 108.409431 
L 517.654487 101.518921 
L 518.474075 88.619644 
L 519.293663 82.246054 
L 520.113251 62.267255 
L 520.932839 95.787211 
L 521.752426 78.812542 
L 522.572014 94.744779 
L 523.391602 62.28776 
L 524.21119 78.311387 
L 525.030778 78.610534 
L 525.850366 70.213077 
L 526.669953 68.235408 
L 527.489541 44.547253 
L 528.309129 29.504064 
L 529.128717 70.793347 
L 529.948305 86.906183 
L 530.767892 82.403109 
L 531.58748 58.962064 
L 532.407068 87.735561 
L 533.226656 79.955778 
L 534.046244 84.342584 
L 534.865831 91.265927 
L 535.685419 87.42338 
L 536.505007 109.391532 
L 537.324595 71.790719 
L 538.144183 45.527097 
L 538.963771 89.034454 
L 539.783358 100.098309 
L 540.602946 79.799374 
L 541.422534 70.250086 
L 542.242122 41.682975 
L 543.881297 102.69955 
L 544.700885 82.973405 
L 545.520473 71.978973 
L 546.340061 66.535776 
L 547.159649 106.657471 
L 547.979236 61.831046 
L 548.798824 104.799354 
L 549.618412 68.838318 
L 550.438 59.382388 
L 551.257588 67.557329 
L 552.077176 72.965519 
L 552.896763 51.499422 
L 553.716351 86.445899 
L 554.535939 69.245094 
L 555.355527 73.850998 
L 556.175115 115.326612 
L 557.81429 79.274085 
L 558.633878 93.527142 
L 559.453466 78.05034 
L 560.273054 77.148484 
L 561.092641 89.408119 
L 561.912229 60.09676 
L 562.731817 100.152836 
L 563.551405 79.36937 
L 564.370993 95.153266 
L 565.190581 72.359677 
L 566.010168 89.366311 
L 566.829756 79.703778 
L 567.649344 79.655742 
L 568.468932 81.044663 
L 569.28852 39.679467 
L 570.108107 51.573414 
L 570.927695 74.903533 
L 571.747283 91.798266 
L 572.566871 51.080355 
L 573.386459 76.493642 
L 574.206046 81.279789 
L 575.025634 44.548946 
L 575.845222 97.754494 
L 576.66481 66.648882 
L 577.484398 115.909625 
L 579.123573 79.720837 
L 579.943161 109.78698 
L 580.762749 53.500083 
L 581.582337 63.217861 
L 582.401925 42.877359 
L 583.221512 95.973247 
L 584.0411 65.673802 
L 584.860688 83.618298 
L 585.680276 82.859185 
L 586.499864 36.512527 
L 588.139039 87.497382 
L 588.958627 93.680721 
L 591.41739 62.052184 
L 592.236978 73.295451 
L 593.056566 73.01579 
L 593.876154 68.699369 
L 594.695742 49.146338 
L 595.51533 41.823504 
L 596.334917 104.792602 
L 597.154505 65.161302 
L 597.974093 63.640494 
L 598.793681 98.28624 
L 599.613269 86.08114 
L 600.432856 83.535614 
L 601.252444 87.181252 
L 602.072032 44.944532 
L 602.89162 97.025889 
L 603.711208 48.191021 
L 604.530795 69.338859 
L 605.350383 81.199217 
L 606.169971 81.990469 
L 606.989559 92.928423 
L 607.809147 106.070917 
L 608.628735 42.741659 
L 609.448322 77.180267 
L 610.26791 67.035893 
L 611.087498 95.837913 
L 611.907086 107.231775 
L 612.726674 44.614905 
L 613.546261 34.812251 
L 614.365849 80.575434 
L 615.185437 53.903069 
L 616.005025 109.650012 
L 616.824613 93.382351 
L 617.6442 81.490514 
L 618.463788 88.198578 
L 619.283376 74.580855 
L 620.102964 67.951582 
L 620.922552 71.332313 
L 621.74214 75.238376 
L 622.561727 52.937557 
L 623.381315 95.595473 
L 624.200903 63.094364 
L 625.020491 96.368436 
L 625.840079 59.843114 
L 626.659666 89.677868 
L 627.479254 67.55838 
L 628.298842 67.090369 
L 629.11843 89.282834 
L 629.938018 75.893815 
L 630.757605 87.705977 
L 631.577193 39.530802 
L 632.396781 91.134219 
L 633.216369 87.317875 
L 634.035957 61.281056 
L 634.855545 66.400074 
L 635.675132 62.181691 
L 636.49472 69.536454 
L 637.314308 91.058863 
L 638.133896 86.439201 
L 638.953484 65.397571 
L 639.773071 27.943536 
L 640.592659 95.097878 
L 642.231835 52.451318 
L 643.051423 100.143605 
L 643.87101 47.382335 
L 644.690598 51.203384 
L 645.510186 83.902947 
L 646.329774 77.165804 
L 647.149362 67.094817 
L 647.96895 51.070051 
L 648.788537 96.755356 
L 649.608125 73.013451 
L 650.427713 88.299294 
L 651.247301 81.639469 
L 652.066889 70.376805 
L 652.886476 34.258092 
L 653.706064 58.320413 
L 654.525652 46.518341 
L 656.164828 90.229847 
L 656.984415 115.95569 
L 657.804003 98.553161 
L 658.623591 84.30604 
L 659.443179 82.195831 
L 660.262767 94.020119 
L 661.082355 107.574062 
L 661.901942 45.792035 
L 662.72153 77.707409 
L 663.541118 77.598242 
L 664.360706 53.720789 
L 665.180294 60.620976 
L 665.999881 76.223918 
L 666.819469 62.168274 
L 667.639057 52.810345 
L 668.458645 34.016234 
L 669.278233 83.124887 
L 670.09782 91.692308 
L 670.917408 76.500406 
L 671.736996 66.195149 
L 672.556584 47.745381 
L 673.376172 64.688983 
L 674.19576 50.874843 
L 675.015347 60.716045 
L 675.834935 61.443009 
L 676.654523 81.64686 
L 677.474111 76.223117 
L 678.293699 66.710093 
L 679.113286 102.771293 
L 679.932874 64.586869 
L 680.752462 89.090676 
L 681.57205 83.839293 
L 682.391638 96.317516 
L 683.211225 51.143016 
L 684.030813 73.850653 
L 684.850401 81.126051 
L 685.669989 77.794099 
L 686.489577 54.617069 
L 687.309164 79.912875 
L 688.128752 77.095149 
L 688.94834 68.347487 
L 689.767928 89.495358 
L 690.587516 67.19757 
L 691.407104 80.631171 
L 692.226691 79.677394 
L 693.046279 98.138614 
L 693.865867 66.671582 
L 694.685455 69.450888 
L 695.505043 92.115182 
L 696.32463 46.280149 
L 697.144218 81.89955 
L 698.783394 99.388653 
L 699.602982 62.756568 
L 700.422569 64.390799 
L 701.242157 53.797694 
L 702.061745 61.787435 
L 703.700921 46.259224 
L 704.520509 91.286232 
L 705.340096 66.026171 
L 706.159684 65.32157 
L 706.979272 88.548556 
L 707.79886 68.147328 
L 708.618448 86.290716 
L 709.438035 80.408717 
L 710.257623 61.137345 
L 711.077211 85.29957 
L 711.896799 59.257024 
L 712.716387 70.63029 
L 713.535974 56.829309 
L 714.355562 54.73981 
L 715.994738 86.040506 
L 716.814326 85.747706 
L 717.633914 113.164627 
L 718.453501 59.532568 
L 719.273089 88.36193 
L 720.092677 40.496597 
L 720.912265 80.72724 
L 721.731853 80.431774 
L 722.55144 111.012016 
L 723.371028 83.601957 
L 724.190616 64.196277 
L 725.010204 81.165982 
L 725.829792 80.643649 
L 726.649379 67.005853 
L 728.288555 83.477494 
L 729.108143 50.742201 
L 729.927731 45.984017 
L 730.747319 74.615663 
L 731.566906 90.717182 
L 732.386494 93.601466 
L 733.206082 50.55592 
L 734.02567 57.259031 
L 734.845258 86.815614 
L 735.664845 73.634037 
L 736.484433 66.322796 
L 737.304021 107.763555 
L 738.123609 70.031532 
L 738.943197 105.487881 
L 739.762784 74.443045 
L 740.582372 50.360668 
L 741.40196 67.114415 
L 742.221548 99.837519 
L 743.041136 58.88426 
L 743.860724 55.937604 
L 744.680311 85.894236 
L 745.499899 75.931422 
L 746.319487 76.863016 
L 747.139075 96.413249 
L 747.958663 63.571517 
L 748.77825 58.661737 
L 749.597838 48.16871 
L 750.417426 90.265594 
L 751.237014 69.712468 
L 752.056602 103.228647 
L 752.876189 71.664457 
L 753.695777 69.481418 
L 754.515365 73.274827 
L 755.334953 71.42566 
L 756.154541 53.012368 
L 756.974129 101.653334 
L 757.793716 124.634064 
L 758.613304 73.932128 
L 759.432892 62.410035 
L 761.072068 92.525983 
L 761.891655 63.057369 
L 762.711243 75.205649 
L 763.530831 49.899274 
L 764.350419 77.62904 
L 765.170007 115.206583 
L 765.989594 111.882165 
L 766.809182 66.354414 
L 767.62877 74.77205 
L 768.448358 48.495878 
L 769.267946 61.671757 
L 770.087533 98.300251 
L 770.907121 80.083384 
L 771.726709 65.542746 
L 772.546297 73.761672 
L 773.365885 79.944255 
L 774.185473 61.105631 
L 775.00506 87.353983 
L 775.824648 82.109486 
L 776.644236 84.359824 
L 777.463824 78.809062 
L 778.283412 126.109404 
L 779.102999 58.050984 
L 779.922587 77.376496 
L 780.742175 82.371114 
L 781.561763 85.48193 
L 782.381351 58.809654 
L 783.200938 64.194126 
L 784.020526 109.520532 
L 784.840114 84.540533 
L 785.659702 55.605522 
L 786.47929 118.611993 
L 787.298878 107.635182 
L 788.118465 55.399017 
L 788.938053 78.579087 
L 789.757641 69.887477 
L 790.577229 26.013327 
L 791.396817 63.479088 
L 792.216404 90.497516 
L 793.035992 28.467972 
L 793.85558 85.64377 
L 794.675168 83.227157 
L 795.494756 68.713829 
L 796.314343 44.339489 
L 797.133931 74.046161 
L 797.953519 90.932451 
L 798.773107 56.296957 
L 799.592695 72.147505 
L 800.412283 113.263253 
L 801.23187 75.315744 
L 802.051458 79.259758 
L 802.871046 75.29483 
L 803.690634 83.746267 
L 804.510222 62.151691 
L 805.329809 70.7188 
L 806.149397 86.291136 
L 806.968985 63.716627 
L 807.788573 79.636503 
L 809.427748 43.345966 
L 810.247336 84.059686 
L 811.066924 75.030968 
L 811.886512 100.911196 
L 812.7061 69.164058 
L 813.525688 89.406717 
L 814.345275 63.427762 
L 815.164863 69.052489 
L 815.984451 83.304572 
L 816.804039 78.048924 
L 817.623627 48.988196 
L 818.443214 58.272409 
L 819.262802 40.768844 
L 820.08239 70.726122 
L 820.901978 42.682651 
L 821.721566 83.958734 
L 822.541153 77.343544 
L 823.360741 48.437516 
L 824.180329 75.625044 
L 824.999917 62.593485 
L 825.819505 73.94031 
L 826.639093 55.399213 
L 827.45868 71.84506 
L 828.278268 95.715096 
L 829.097856 80.435078 
L 830.737032 43.966194 
L 831.556619 53.916449 
L 832.376207 92.703439 
L 833.195795 38.200526 
L 834.015383 98.569218 
L 834.834971 101.319982 
L 835.654558 75.496591 
L 836.474146 73.908478 
L 837.293734 90.38224 
L 838.113322 84.59692 
L 838.93291 41.943818 
L 839.752498 76.829413 
L 840.572085 97.004828 
L 841.391673 44.050589 
L 842.211261 58.853702 
L 843.030849 75.946938 
L 843.850437 80.019635 
L 844.670024 31.882553 
L 845.489612 97.094924 
L 846.3092 99.278422 
L 847.128788 75.475544 
L 847.948376 108.449999 
L 848.767963 80.118723 
L 849.587551 86.181367 
L 850.407139 72.21634 
L 851.226727 64.295688 
L 852.046315 58.472001 
L 852.865902 124.126767 
L 853.68549 54.126788 
L 854.505078 51.280136 
L 855.324666 85.621567 
L 856.144254 71.894147 
L 856.963842 42.519434 
L 857.783429 51.625485 
L 858.603017 57.894837 
L 859.422605 59.687017 
L 860.242193 66.748426 
L 861.061781 109.113565 
L 861.881368 80.242937 
L 862.700956 76.267694 
L 863.520544 54.238164 
L 864.340132 95.63953 
L 865.15972 80.229338 
L 865.15972 80.229338 
" style="fill:none;stroke:#1f77b4;stroke-linecap:round;stroke-opacity:0.35;stroke-width:1.363636;"/>
   </g>
   <g id="patch_8">
    <path d="M 456.185402 131.114207 
L 456.185402 21.008523 
" style="fill:none;"/>
   </g>
   <g id="patch_9">
    <path d="M 865.15972 131.114207 
L 865.15972 21.008523 
" style="fill:none;"/>
   </g>
   <g id="patch_10">
    <path d="M 456.185402 131.114207 
L 865.15972 131.114207 
" style="fill:none;"/>
   </g>
   <g id="patch_11">
    <path d="M 456.185402 21.008523 
L 865.15972 21.008523 
" style="fill:none;"/>
   </g>
   <g id="text_17">
    <!-- mu -->
    <g style="fill:#262626;" transform="translate(653.095856 15.008523)scale(0.109091 -0.109091)">
     <use xlink:href="#ArialMT-109"/>
     <use x="83.300781" xlink:href="#ArialMT-117"/>
    </g>
   </g>
  </g>
  <g id="axes_3">
   <g id="patch_12">
    <path d="M 9.329978 276.554208 
L 418.304297 276.554208 
L 418.304297 166.448523 
L 9.329978 166.448523 
z
" style="fill:#eaeaf2;"/>
   </g>
   <g id="matplotlib.axis_5">
    <g id="xtick_11">
     <g id="line2d_33">
      <path clip-path="url(#p662b35a2f1)" d="M 14.15 276.554208 
L 14.15 166.448523 
" style="fill:none;stroke:#ffffff;stroke-linecap:round;"/>
     </g>
     <g id="line2d_34"/>
     <g id="text_18">
      <!-- 0.6 -->
      <defs>
       <path d="M 49.75 54.046875 
L 41.015625 53.375 
Q 39.84375 58.546875 37.703125 60.890625 
Q 34.125 64.65625 28.90625 64.65625 
Q 24.703125 64.65625 21.53125 62.3125 
Q 17.390625 59.28125 14.984375 53.46875 
Q 12.59375 47.65625 12.5 36.921875 
Q 15.671875 41.75 20.265625 44.09375 
Q 24.859375 46.4375 29.890625 46.4375 
Q 38.671875 46.4375 44.84375 39.96875 
Q 51.03125 33.5 51.03125 23.25 
Q 51.03125 16.5 48.125 10.71875 
Q 45.21875 4.9375 40.140625 1.859375 
Q 35.0625 -1.21875 28.609375 -1.21875 
Q 17.625 -1.21875 10.6875 6.859375 
Q 3.765625 14.9375 3.765625 33.5 
Q 3.765625 54.25 11.421875 63.671875 
Q 18.109375 71.875 29.4375 71.875 
Q 37.890625 71.875 43.28125 67.140625 
Q 48.6875 62.40625 49.75 54.046875 
z
M 13.875 23.1875 
Q 13.875 18.65625 15.796875 14.5 
Q 17.71875 10.359375 21.1875 8.171875 
Q 24.65625 6 28.46875 6 
Q 34.03125 6 38.03125 10.484375 
Q 42.046875 14.984375 42.046875 22.703125 
Q 42.046875 30.125 38.078125 34.390625 
Q 34.125 38.671875 28.125 38.671875 
Q 22.171875 38.671875 18.015625 34.390625 
Q 13.875 30.125 13.875 23.1875 
z
" id="ArialMT-54"/>
      </defs>
      <g style="fill:#262626;" transform="translate(7.2 287.21202)scale(0.1 -0.1)">
       <use xlink:href="#ArialMT-48"/>
       <use x="55.615234" xlink:href="#ArialMT-46"/>
       <use x="83.398438" xlink:href="#ArialMT-54"/>
      </g>
     </g>
    </g>
    <g id="xtick_12">
     <g id="line2d_35">
      <path clip-path="url(#p662b35a2f1)" d="M 76.718462 276.554208 
L 76.718462 166.448523 
" style="fill:none;stroke:#ffffff;stroke-linecap:round;"/>
     </g>
     <g id="line2d_36"/>
     <g id="text_19">
      <!-- 0.8 -->
      <defs>
       <path d="M 17.671875 38.8125 
Q 12.203125 40.828125 9.5625 44.53125 
Q 6.9375 48.25 6.9375 53.421875 
Q 6.9375 61.234375 12.546875 66.546875 
Q 18.171875 71.875 27.484375 71.875 
Q 36.859375 71.875 42.578125 66.421875 
Q 48.296875 60.984375 48.296875 53.171875 
Q 48.296875 48.1875 45.671875 44.5 
Q 43.0625 40.828125 37.75 38.8125 
Q 44.34375 36.671875 47.78125 31.875 
Q 51.21875 27.09375 51.21875 20.453125 
Q 51.21875 11.28125 44.71875 5.03125 
Q 38.234375 -1.21875 27.640625 -1.21875 
Q 17.046875 -1.21875 10.546875 5.046875 
Q 4.046875 11.328125 4.046875 20.703125 
Q 4.046875 27.6875 7.59375 32.390625 
Q 11.140625 37.109375 17.671875 38.8125 
z
M 15.921875 53.71875 
Q 15.921875 48.640625 19.1875 45.40625 
Q 22.46875 42.1875 27.6875 42.1875 
Q 32.765625 42.1875 36.015625 45.375 
Q 39.265625 48.578125 39.265625 53.21875 
Q 39.265625 58.0625 35.90625 61.359375 
Q 32.5625 64.65625 27.59375 64.65625 
Q 22.5625 64.65625 19.234375 61.421875 
Q 15.921875 58.203125 15.921875 53.71875 
z
M 13.09375 20.65625 
Q 13.09375 16.890625 14.875 13.375 
Q 16.65625 9.859375 20.171875 7.921875 
Q 23.6875 6 27.734375 6 
Q 34.03125 6 38.125 10.046875 
Q 42.234375 14.109375 42.234375 20.359375 
Q 42.234375 26.703125 38.015625 30.859375 
Q 33.796875 35.015625 27.4375 35.015625 
Q 21.234375 35.015625 17.15625 30.90625 
Q 13.09375 26.8125 13.09375 20.65625 
z
" id="ArialMT-56"/>
      </defs>
      <g style="fill:#262626;" transform="translate(69.768462 287.21202)scale(0.1 -0.1)">
       <use xlink:href="#ArialMT-48"/>
       <use x="55.615234" xlink:href="#ArialMT-46"/>
       <use x="83.398438" xlink:href="#ArialMT-56"/>
      </g>
     </g>
    </g>
    <g id="xtick_13">
     <g id="line2d_37">
      <path clip-path="url(#p662b35a2f1)" d="M 139.286923 276.554208 
L 139.286923 166.448523 
" style="fill:none;stroke:#ffffff;stroke-linecap:round;"/>
     </g>
     <g id="line2d_38"/>
     <g id="text_20">
      <!-- 1.0 -->
      <g style="fill:#262626;" transform="translate(132.336923 287.21202)scale(0.1 -0.1)">
       <use xlink:href="#ArialMT-49"/>
       <use x="55.615234" xlink:href="#ArialMT-46"/>
       <use x="83.398438" xlink:href="#ArialMT-48"/>
      </g>
     </g>
    </g>
    <g id="xtick_14">
     <g id="line2d_39">
      <path clip-path="url(#p662b35a2f1)" d="M 201.855385 276.554208 
L 201.855385 166.448523 
" style="fill:none;stroke:#ffffff;stroke-linecap:round;"/>
     </g>
     <g id="line2d_40"/>
     <g id="text_21">
      <!-- 1.2 -->
      <g style="fill:#262626;" transform="translate(194.905385 287.21202)scale(0.1 -0.1)">
       <use xlink:href="#ArialMT-49"/>
       <use x="55.615234" xlink:href="#ArialMT-46"/>
       <use x="83.398438" xlink:href="#ArialMT-50"/>
      </g>
     </g>
    </g>
    <g id="xtick_15">
     <g id="line2d_41">
      <path clip-path="url(#p662b35a2f1)" d="M 264.423847 276.554208 
L 264.423847 166.448523 
" style="fill:none;stroke:#ffffff;stroke-linecap:round;"/>
     </g>
     <g id="line2d_42"/>
     <g id="text_22">
      <!-- 1.4 -->
      <g style="fill:#262626;" transform="translate(257.473847 287.21202)scale(0.1 -0.1)">
       <use xlink:href="#ArialMT-49"/>
       <use x="55.615234" xlink:href="#ArialMT-46"/>
       <use x="83.398438" xlink:href="#ArialMT-52"/>
      </g>
     </g>
    </g>
    <g id="xtick_16">
     <g id="line2d_43">
      <path clip-path="url(#p662b35a2f1)" d="M 326.992309 276.554208 
L 326.992309 166.448523 
" style="fill:none;stroke:#ffffff;stroke-linecap:round;"/>
     </g>
     <g id="line2d_44"/>
     <g id="text_23">
      <!-- 1.6 -->
      <g style="fill:#262626;" transform="translate(320.042309 287.21202)scale(0.1 -0.1)">
       <use xlink:href="#ArialMT-49"/>
       <use x="55.615234" xlink:href="#ArialMT-46"/>
       <use x="83.398438" xlink:href="#ArialMT-54"/>
      </g>
     </g>
    </g>
    <g id="xtick_17">
     <g id="line2d_45">
      <path clip-path="url(#p662b35a2f1)" d="M 389.56077 276.554208 
L 389.56077 166.448523 
" style="fill:none;stroke:#ffffff;stroke-linecap:round;"/>
     </g>
     <g id="line2d_46"/>
     <g id="text_24">
      <!-- 1.8 -->
      <g style="fill:#262626;" transform="translate(382.61077 287.21202)scale(0.1 -0.1)">
       <use xlink:href="#ArialMT-49"/>
       <use x="55.615234" xlink:href="#ArialMT-46"/>
       <use x="83.398438" xlink:href="#ArialMT-56"/>
      </g>
     </g>
    </g>
   </g>
   <g id="matplotlib.axis_6"/>
   <g id="PolyCollection_2">
    <defs>
     <path d="M 27.91972 -19.845313 
L 27.91972 -22.604086 
L 29.788036 -22.604086 
L 31.656352 -22.629185 
L 33.524667 -22.725802 
L 35.392983 -22.842889 
L 37.261299 -23.006461 
L 39.129615 -23.215946 
L 40.99793 -23.484317 
L 42.866246 -23.8272 
L 44.734562 -24.244886 
L 46.602878 -24.759848 
L 48.471193 -25.3587 
L 50.339509 -26.058182 
L 52.207825 -26.837276 
L 54.076141 -27.732526 
L 55.944456 -28.729969 
L 57.812772 -29.832764 
L 59.681088 -31.034159 
L 61.549404 -32.324495 
L 63.417719 -33.684082 
L 65.286035 -35.127572 
L 67.154351 -36.660757 
L 69.022667 -38.326042 
L 70.890982 -40.034207 
L 72.759298 -41.851349 
L 74.627614 -43.744236 
L 76.49593 -45.754761 
L 78.364245 -47.849929 
L 80.232561 -50.058671 
L 82.100877 -52.38137 
L 83.969193 -54.855226 
L 85.837508 -57.429138 
L 87.705824 -60.124312 
L 89.57414 -62.946453 
L 91.442456 -65.891695 
L 93.310771 -68.913156 
L 95.179087 -72.067898 
L 97.047403 -75.271534 
L 98.915719 -78.518087 
L 100.784034 -81.789683 
L 102.65235 -85.087497 
L 104.520666 -88.336606 
L 106.388982 -91.568104 
L 108.257297 -94.755752 
L 110.125613 -97.864566 
L 111.993929 -100.864825 
L 113.862245 -103.755949 
L 115.73056 -106.504692 
L 117.598876 -109.109453 
L 119.467192 -111.588243 
L 121.335508 -113.863641 
L 123.203823 -115.954615 
L 125.072139 -117.865358 
L 126.940455 -119.536802 
L 128.808771 -121.008658 
L 130.677086 -122.239784 
L 132.545402 -123.230634 
L 134.413718 -123.962376 
L 136.282034 -124.459893 
L 138.15035 -124.703647 
L 140.018665 -124.707869 
L 141.886981 -124.467244 
L 143.755297 -124.003716 
L 145.623613 -123.317549 
L 147.491928 -122.408593 
L 149.360244 -121.304235 
L 151.22856 -120.024433 
L 153.096876 -118.568192 
L 154.965191 -116.985004 
L 156.833507 -115.273434 
L 158.701823 -113.445393 
L 160.570139 -111.490604 
L 162.438454 -109.443984 
L 164.30677 -107.392999 
L 166.175086 -105.281262 
L 168.043402 -103.203138 
L 169.911717 -101.154481 
L 171.780033 -99.166449 
L 173.648349 -97.258507 
L 175.516665 -95.444786 
L 177.38498 -93.738459 
L 179.253296 -92.207272 
L 181.121612 -90.841523 
L 182.989928 -89.619321 
L 184.858243 -88.553541 
L 186.726559 -87.662221 
L 188.594875 -86.854914 
L 190.463191 -86.195638 
L 192.331506 -85.625563 
L 194.199822 -85.120625 
L 196.068138 -84.640036 
L 197.936454 -84.188437 
L 199.804769 -83.69412 
L 201.673085 -83.166376 
L 203.541401 -82.588033 
L 205.409717 -81.938807 
L 207.278032 -81.203423 
L 209.146348 -80.391854 
L 211.014664 -79.463192 
L 212.88298 -78.412626 
L 214.751295 -77.255839 
L 216.619611 -75.987848 
L 218.487927 -74.577928 
L 220.356243 -73.054328 
L 222.224558 -71.3913 
L 224.092874 -69.610182 
L 225.96119 -67.695397 
L 227.829506 -65.670755 
L 229.697821 -63.51692 
L 231.566137 -61.269049 
L 233.434453 -58.925084 
L 235.302769 -56.55096 
L 237.171084 -54.131418 
L 239.0394 -51.724948 
L 240.907716 -49.337671 
L 242.776032 -47.004407 
L 244.644347 -44.740049 
L 246.512663 -42.5967 
L 248.380979 -40.562898 
L 250.249295 -38.683221 
L 252.11761 -36.944394 
L 253.985926 -35.377867 
L 255.854242 -33.964144 
L 257.722558 -32.72241 
L 259.590873 -31.63372 
L 261.459189 -30.68064 
L 263.327505 -29.848712 
L 265.195821 -29.173212 
L 267.064136 -28.611861 
L 268.932452 -28.158599 
L 270.800768 -27.789531 
L 272.669084 -27.495789 
L 274.537399 -27.268056 
L 276.405715 -27.113021 
L 278.274031 -26.998118 
L 280.142347 -26.924482 
L 282.010662 -26.891639 
L 283.878978 -26.87787 
L 285.747294 -26.879932 
L 287.61561 -26.888552 
L 289.483925 -26.885867 
L 291.352241 -26.88117 
L 293.220557 -26.855655 
L 295.088873 -26.795236 
L 296.957188 -26.712859 
L 298.825504 -26.602788 
L 300.69382 -26.45644 
L 302.562136 -26.268541 
L 304.430451 -26.045908 
L 306.298767 -25.785253 
L 308.167083 -25.504809 
L 310.035399 -25.197721 
L 311.903714 -24.869591 
L 313.77203 -24.524562 
L 315.640346 -24.169241 
L 317.508662 -23.81028 
L 319.376977 -23.454137 
L 321.245293 -23.102204 
L 323.113609 -22.766159 
L 324.981925 -22.450276 
L 326.85024 -22.16279 
L 328.718556 -21.895592 
L 330.586872 -21.668763 
L 332.455188 -21.466299 
L 334.323503 -21.288934 
L 336.191819 -21.147354 
L 338.060135 -21.033876 
L 339.928451 -20.942239 
L 341.796766 -20.876425 
L 343.665082 -20.833244 
L 345.533398 -20.813964 
L 347.401714 -20.808882 
L 349.270029 -20.810323 
L 351.138345 -20.816809 
L 353.006661 -20.840508 
L 354.874977 -20.867707 
L 356.743293 -20.903461 
L 358.611608 -20.933601 
L 360.479924 -20.957344 
L 362.34824 -20.985129 
L 364.216556 -21.010185 
L 366.084871 -21.032858 
L 367.953187 -21.05372 
L 369.821503 -21.068848 
L 371.689819 -21.089965 
L 373.558134 -21.111282 
L 375.42645 -21.133778 
L 377.294766 -21.158266 
L 379.163082 -21.185312 
L 381.031397 -21.222007 
L 382.899713 -21.257539 
L 384.768029 -21.296233 
L 386.636345 -21.337325 
L 388.50466 -21.37964 
L 390.372976 -21.421647 
L 392.241292 -21.461547 
L 394.109608 -21.497402 
L 395.977923 -21.527282 
L 397.846239 -21.549423 
L 399.714555 -21.562375 
L 399.714555 -19.845313 
L 399.714555 -19.845313 
L 397.846239 -19.845313 
L 395.977923 -19.845313 
L 394.109608 -19.845313 
L 392.241292 -19.845313 
L 390.372976 -19.845313 
L 388.50466 -19.845313 
L 386.636345 -19.845313 
L 384.768029 -19.845313 
L 382.899713 -19.845313 
L 381.031397 -19.845313 
L 379.163082 -19.845313 
L 377.294766 -19.845313 
L 375.42645 -19.845313 
L 373.558134 -19.845313 
L 371.689819 -19.845313 
L 369.821503 -19.845313 
L 367.953187 -19.845313 
L 366.084871 -19.845313 
L 364.216556 -19.845313 
L 362.34824 -19.845313 
L 360.479924 -19.845313 
L 358.611608 -19.845313 
L 356.743293 -19.845313 
L 354.874977 -19.845313 
L 353.006661 -19.845313 
L 351.138345 -19.845313 
L 349.270029 -19.845313 
L 347.401714 -19.845313 
L 345.533398 -19.845313 
L 343.665082 -19.845313 
L 341.796766 -19.845313 
L 339.928451 -19.845313 
L 338.060135 -19.845313 
L 336.191819 -19.845313 
L 334.323503 -19.845313 
L 332.455188 -19.845313 
L 330.586872 -19.845313 
L 328.718556 -19.845313 
L 326.85024 -19.845313 
L 324.981925 -19.845313 
L 323.113609 -19.845313 
L 321.245293 -19.845313 
L 319.376977 -19.845313 
L 317.508662 -19.845313 
L 315.640346 -19.845313 
L 313.77203 -19.845313 
L 311.903714 -19.845313 
L 310.035399 -19.845313 
L 308.167083 -19.845313 
L 306.298767 -19.845313 
L 304.430451 -19.845313 
L 302.562136 -19.845313 
L 300.69382 -19.845313 
L 298.825504 -19.845313 
L 296.957188 -19.845313 
L 295.088873 -19.845313 
L 293.220557 -19.845313 
L 291.352241 -19.845313 
L 289.483925 -19.845313 
L 287.61561 -19.845313 
L 285.747294 -19.845313 
L 283.878978 -19.845313 
L 282.010662 -19.845313 
L 280.142347 -19.845313 
L 278.274031 -19.845313 
L 276.405715 -19.845313 
L 274.537399 -19.845313 
L 272.669084 -19.845313 
L 270.800768 -19.845313 
L 268.932452 -19.845313 
L 267.064136 -19.845313 
L 265.195821 -19.845313 
L 263.327505 -19.845313 
L 261.459189 -19.845313 
L 259.590873 -19.845313 
L 257.722558 -19.845313 
L 255.854242 -19.845313 
L 253.985926 -19.845313 
L 252.11761 -19.845313 
L 250.249295 -19.845313 
L 248.380979 -19.845313 
L 246.512663 -19.845313 
L 244.644347 -19.845313 
L 242.776032 -19.845313 
L 240.907716 -19.845313 
L 239.0394 -19.845313 
L 237.171084 -19.845313 
L 235.302769 -19.845313 
L 233.434453 -19.845313 
L 231.566137 -19.845313 
L 229.697821 -19.845313 
L 227.829506 -19.845313 
L 225.96119 -19.845313 
L 224.092874 -19.845313 
L 222.224558 -19.845313 
L 220.356243 -19.845313 
L 218.487927 -19.845313 
L 216.619611 -19.845313 
L 214.751295 -19.845313 
L 212.88298 -19.845313 
L 211.014664 -19.845313 
L 209.146348 -19.845313 
L 207.278032 -19.845313 
L 205.409717 -19.845313 
L 203.541401 -19.845313 
L 201.673085 -19.845313 
L 199.804769 -19.845313 
L 197.936454 -19.845313 
L 196.068138 -19.845313 
L 194.199822 -19.845313 
L 192.331506 -19.845313 
L 190.463191 -19.845313 
L 188.594875 -19.845313 
L 186.726559 -19.845313 
L 184.858243 -19.845313 
L 182.989928 -19.845313 
L 181.121612 -19.845313 
L 179.253296 -19.845313 
L 177.38498 -19.845313 
L 175.516665 -19.845313 
L 173.648349 -19.845313 
L 171.780033 -19.845313 
L 169.911717 -19.845313 
L 168.043402 -19.845313 
L 166.175086 -19.845313 
L 164.30677 -19.845313 
L 162.438454 -19.845313 
L 160.570139 -19.845313 
L 158.701823 -19.845313 
L 156.833507 -19.845313 
L 154.965191 -19.845313 
L 153.096876 -19.845313 
L 151.22856 -19.845313 
L 149.360244 -19.845313 
L 147.491928 -19.845313 
L 145.623613 -19.845313 
L 143.755297 -19.845313 
L 141.886981 -19.845313 
L 140.018665 -19.845313 
L 138.15035 -19.845313 
L 136.282034 -19.845313 
L 134.413718 -19.845313 
L 132.545402 -19.845313 
L 130.677086 -19.845313 
L 128.808771 -19.845313 
L 126.940455 -19.845313 
L 125.072139 -19.845313 
L 123.203823 -19.845313 
L 121.335508 -19.845313 
L 119.467192 -19.845313 
L 117.598876 -19.845313 
L 115.73056 -19.845313 
L 113.862245 -19.845313 
L 111.993929 -19.845313 
L 110.125613 -19.845313 
L 108.257297 -19.845313 
L 106.388982 -19.845313 
L 104.520666 -19.845313 
L 102.65235 -19.845313 
L 100.784034 -19.845313 
L 98.915719 -19.845313 
L 97.047403 -19.845313 
L 95.179087 -19.845313 
L 93.310771 -19.845313 
L 91.442456 -19.845313 
L 89.57414 -19.845313 
L 87.705824 -19.845313 
L 85.837508 -19.845313 
L 83.969193 -19.845313 
L 82.100877 -19.845313 
L 80.232561 -19.845313 
L 78.364245 -19.845313 
L 76.49593 -19.845313 
L 74.627614 -19.845313 
L 72.759298 -19.845313 
L 70.890982 -19.845313 
L 69.022667 -19.845313 
L 67.154351 -19.845313 
L 65.286035 -19.845313 
L 63.417719 -19.845313 
L 61.549404 -19.845313 
L 59.681088 -19.845313 
L 57.812772 -19.845313 
L 55.944456 -19.845313 
L 54.076141 -19.845313 
L 52.207825 -19.845313 
L 50.339509 -19.845313 
L 48.471193 -19.845313 
L 46.602878 -19.845313 
L 44.734562 -19.845313 
L 42.866246 -19.845313 
L 40.99793 -19.845313 
L 39.129615 -19.845313 
L 37.261299 -19.845313 
L 35.392983 -19.845313 
L 33.524667 -19.845313 
L 31.656352 -19.845313 
L 29.788036 -19.845313 
L 27.91972 -19.845313 
z
" id="m2243cd44de" style="stroke:#1f77b4;stroke-opacity:0;"/>
    </defs>
    <g clip-path="url(#p662b35a2f1)">
     <use style="fill:#1f77b4;fill-opacity:0;stroke:#1f77b4;stroke-opacity:0;" x="0" xlink:href="#m2243cd44de" y="296.39952"/>
    </g>
   </g>
   <g id="line2d_47">
    <path clip-path="url(#p662b35a2f1)" d="M 27.91972 273.795434 
L 31.656352 273.770335 
L 37.261299 273.393059 
L 40.99793 272.915203 
L 44.734562 272.154634 
L 48.471193 271.04082 
L 52.207825 269.562244 
L 55.944456 267.669551 
L 59.681088 265.365361 
L 63.417719 262.715438 
L 67.154351 259.738763 
L 70.890982 256.365313 
L 74.627614 252.655284 
L 78.364245 248.549591 
L 82.100877 244.01815 
L 85.837508 238.970382 
L 89.57414 233.453067 
L 93.310771 227.486364 
L 98.915719 217.881433 
L 108.257297 201.643768 
L 111.993929 195.534695 
L 115.73056 189.894828 
L 119.467192 184.811277 
L 121.335508 182.535879 
L 123.203823 180.444905 
L 125.072139 178.534162 
L 126.940455 176.862718 
L 128.808771 175.390862 
L 130.677086 174.159736 
L 132.545402 173.168886 
L 134.413718 172.437144 
L 136.282034 171.939627 
L 138.15035 171.695873 
L 140.018665 171.691651 
L 141.886981 171.932276 
L 143.755297 172.395804 
L 145.623613 173.081971 
L 147.491928 173.990927 
L 149.360244 175.095285 
L 151.22856 176.375087 
L 154.965191 179.414516 
L 158.701823 182.954127 
L 162.438454 186.955536 
L 173.648349 199.141013 
L 177.38498 202.661061 
L 179.253296 204.192248 
L 181.121612 205.557997 
L 182.989928 206.780199 
L 184.858243 207.845979 
L 188.594875 209.544606 
L 192.331506 210.773957 
L 203.541401 213.811487 
L 207.278032 215.196097 
L 211.014664 216.936328 
L 214.751295 219.143681 
L 216.619611 220.411672 
L 220.356243 223.345192 
L 224.092874 226.789338 
L 227.829506 230.728765 
L 231.566137 235.130471 
L 239.0394 244.674572 
L 244.644347 251.659471 
L 248.380979 255.836622 
L 252.11761 259.455126 
L 253.985926 261.021653 
L 255.854242 262.435376 
L 257.722558 263.67711 
L 259.590873 264.7658 
L 263.327505 266.550808 
L 267.064136 267.787659 
L 270.800768 268.609989 
L 274.537399 269.131464 
L 278.274031 269.401402 
L 283.878978 269.52165 
L 295.088873 269.604284 
L 300.69382 269.94308 
L 306.298767 270.614267 
L 311.903714 271.529929 
L 326.85024 274.23673 
L 332.455188 274.933221 
L 338.060135 275.365644 
L 343.665082 275.566276 
L 353.006661 275.559012 
L 399.714555 274.837145 
L 399.714555 274.837145 
" style="fill:none;stroke:#1f77b4;stroke-linecap:round;stroke-width:1.363636;"/>
   </g>
   <g id="patch_13">
    <path d="M 9.329978 276.554208 
L 9.329978 166.448523 
" style="fill:none;"/>
   </g>
   <g id="patch_14">
    <path d="M 418.304297 276.554208 
L 418.304297 166.448523 
" style="fill:none;"/>
   </g>
   <g id="patch_15">
    <path d="M 9.329978 276.554208 
L 418.304297 276.554208 
" style="fill:none;"/>
   </g>
   <g id="patch_16">
    <path d="M 9.329978 166.448523 
L 418.304297 166.448523 
" style="fill:none;"/>
   </g>
   <g id="text_25">
    <!-- sd -->
    <defs>
     <path d="M 3.078125 15.484375 
L 11.765625 16.84375 
Q 12.5 11.625 15.84375 8.84375 
Q 19.1875 6.0625 25.203125 6.0625 
Q 31.25 6.0625 34.171875 8.515625 
Q 37.109375 10.984375 37.109375 14.3125 
Q 37.109375 17.28125 34.515625 19 
Q 32.71875 20.171875 25.53125 21.96875 
Q 15.875 24.421875 12.140625 26.203125 
Q 8.40625 27.984375 6.46875 31.125 
Q 4.546875 34.28125 4.546875 38.09375 
Q 4.546875 41.546875 6.125 44.5 
Q 7.71875 47.46875 10.453125 49.421875 
Q 12.5 50.921875 16.03125 51.96875 
Q 19.578125 53.03125 23.640625 53.03125 
Q 29.734375 53.03125 34.34375 51.265625 
Q 38.96875 49.515625 41.15625 46.5 
Q 43.359375 43.5 44.1875 38.484375 
L 35.59375 37.3125 
Q 35.015625 41.3125 32.203125 43.546875 
Q 29.390625 45.796875 24.265625 45.796875 
Q 18.21875 45.796875 15.625 43.796875 
Q 13.03125 41.796875 13.03125 39.109375 
Q 13.03125 37.40625 14.109375 36.03125 
Q 15.1875 34.625 17.484375 33.6875 
Q 18.796875 33.203125 25.25 31.453125 
Q 34.578125 28.953125 38.25 27.359375 
Q 41.9375 25.78125 44.03125 22.75 
Q 46.140625 19.734375 46.140625 15.234375 
Q 46.140625 10.84375 43.578125 6.953125 
Q 41.015625 3.078125 36.171875 0.953125 
Q 31.34375 -1.171875 25.25 -1.171875 
Q 15.140625 -1.171875 9.84375 3.03125 
Q 4.546875 7.234375 3.078125 15.484375 
z
" id="ArialMT-115"/>
     <path d="M 40.234375 0 
L 40.234375 6.546875 
Q 35.296875 -1.171875 25.734375 -1.171875 
Q 19.53125 -1.171875 14.328125 2.25 
Q 9.125 5.671875 6.265625 11.796875 
Q 3.421875 17.921875 3.421875 25.875 
Q 3.421875 33.640625 6 39.96875 
Q 8.59375 46.296875 13.765625 49.65625 
Q 18.953125 53.03125 25.34375 53.03125 
Q 30.03125 53.03125 33.6875 51.046875 
Q 37.359375 49.078125 39.65625 45.90625 
L 39.65625 71.578125 
L 48.390625 71.578125 
L 48.390625 0 
z
M 12.453125 25.875 
Q 12.453125 15.921875 16.640625 10.984375 
Q 20.84375 6.0625 26.5625 6.0625 
Q 32.328125 6.0625 36.34375 10.765625 
Q 40.375 15.484375 40.375 25.140625 
Q 40.375 35.796875 36.265625 40.765625 
Q 32.171875 45.75 26.171875 45.75 
Q 20.3125 45.75 16.375 40.96875 
Q 12.453125 36.1875 12.453125 25.875 
z
" id="ArialMT-100"/>
    </defs>
    <g style="fill:#262626;" transform="translate(208.056626 160.448523)scale(0.109091 -0.109091)">
     <use xlink:href="#ArialMT-115"/>
     <use x="50" xlink:href="#ArialMT-100"/>
    </g>
   </g>
  </g>
  <g id="axes_4">
   <g id="patch_17">
    <path d="M 456.185402 276.554208 
L 865.15972 276.554208 
L 865.15972 166.448523 
L 456.185402 166.448523 
z
" style="fill:#eaeaf2;"/>
   </g>
   <g id="matplotlib.axis_7">
    <g id="xtick_18">
     <g id="line2d_48">
      <path clip-path="url(#p320a5da1ba)" d="M 456.185402 276.554208 
L 456.185402 166.448523 
" style="fill:none;stroke:#ffffff;stroke-linecap:round;"/>
     </g>
     <g id="line2d_49"/>
     <g id="text_26">
      <!-- 0 -->
      <g style="fill:#262626;" transform="translate(453.404933 287.21202)scale(0.1 -0.1)">
       <use xlink:href="#ArialMT-48"/>
      </g>
     </g>
    </g>
    <g id="xtick_19">
     <g id="line2d_50">
      <path clip-path="url(#p320a5da1ba)" d="M 538.144183 276.554208 
L 538.144183 166.448523 
" style="fill:none;stroke:#ffffff;stroke-linecap:round;"/>
     </g>
     <g id="line2d_51"/>
     <g id="text_27">
      <!-- 100 -->
      <g style="fill:#262626;" transform="translate(529.802776 287.21202)scale(0.1 -0.1)">
       <use xlink:href="#ArialMT-49"/>
       <use x="55.615234" xlink:href="#ArialMT-48"/>
       <use x="111.230469" xlink:href="#ArialMT-48"/>
      </g>
     </g>
    </g>
    <g id="xtick_20">
     <g id="line2d_52">
      <path clip-path="url(#p320a5da1ba)" d="M 620.102964 276.554208 
L 620.102964 166.448523 
" style="fill:none;stroke:#ffffff;stroke-linecap:round;"/>
     </g>
     <g id="line2d_53"/>
     <g id="text_28">
      <!-- 200 -->
      <g style="fill:#262626;" transform="translate(611.761558 287.21202)scale(0.1 -0.1)">
       <use xlink:href="#ArialMT-50"/>
       <use x="55.615234" xlink:href="#ArialMT-48"/>
       <use x="111.230469" xlink:href="#ArialMT-48"/>
      </g>
     </g>
    </g>
    <g id="xtick_21">
     <g id="line2d_54">
      <path clip-path="url(#p320a5da1ba)" d="M 702.061745 276.554208 
L 702.061745 166.448523 
" style="fill:none;stroke:#ffffff;stroke-linecap:round;"/>
     </g>
     <g id="line2d_55"/>
     <g id="text_29">
      <!-- 300 -->
      <g style="fill:#262626;" transform="translate(693.720339 287.21202)scale(0.1 -0.1)">
       <use xlink:href="#ArialMT-51"/>
       <use x="55.615234" xlink:href="#ArialMT-48"/>
       <use x="111.230469" xlink:href="#ArialMT-48"/>
      </g>
     </g>
    </g>
    <g id="xtick_22">
     <g id="line2d_56">
      <path clip-path="url(#p320a5da1ba)" d="M 784.020526 276.554208 
L 784.020526 166.448523 
" style="fill:none;stroke:#ffffff;stroke-linecap:round;"/>
     </g>
     <g id="line2d_57"/>
     <g id="text_30">
      <!-- 400 -->
      <g style="fill:#262626;" transform="translate(775.67912 287.21202)scale(0.1 -0.1)">
       <use xlink:href="#ArialMT-52"/>
       <use x="55.615234" xlink:href="#ArialMT-48"/>
       <use x="111.230469" xlink:href="#ArialMT-48"/>
      </g>
     </g>
    </g>
   </g>
   <g id="matplotlib.axis_8">
    <g id="ytick_6">
     <g id="line2d_58">
      <path clip-path="url(#p320a5da1ba)" d="M 456.185402 241.566684 
L 865.15972 241.566684 
" style="fill:none;stroke:#ffffff;stroke-linecap:round;"/>
     </g>
     <g id="line2d_59"/>
     <g id="text_31">
      <!-- 1.0 -->
      <g style="fill:#262626;" transform="translate(438.785402 245.145591)scale(0.1 -0.1)">
       <use xlink:href="#ArialMT-49"/>
       <use x="55.615234" xlink:href="#ArialMT-46"/>
       <use x="83.398438" xlink:href="#ArialMT-48"/>
      </g>
     </g>
    </g>
    <g id="ytick_7">
     <g id="line2d_60">
      <path clip-path="url(#p320a5da1ba)" d="M 456.185402 199.454362 
L 865.15972 199.454362 
" style="fill:none;stroke:#ffffff;stroke-linecap:round;"/>
     </g>
     <g id="line2d_61"/>
     <g id="text_32">
      <!-- 1.5 -->
      <defs>
       <path d="M 4.15625 18.75 
L 13.375 19.53125 
Q 14.40625 12.796875 18.140625 9.390625 
Q 21.875 6 27.15625 6 
Q 33.5 6 37.890625 10.78125 
Q 42.28125 15.578125 42.28125 23.484375 
Q 42.28125 31 38.0625 35.34375 
Q 33.84375 39.703125 27 39.703125 
Q 22.75 39.703125 19.328125 37.765625 
Q 15.921875 35.84375 13.96875 32.765625 
L 5.71875 33.84375 
L 12.640625 70.609375 
L 48.25 70.609375 
L 48.25 62.203125 
L 19.671875 62.203125 
L 15.828125 42.96875 
Q 22.265625 47.46875 29.34375 47.46875 
Q 38.71875 47.46875 45.15625 40.96875 
Q 51.609375 34.46875 51.609375 24.265625 
Q 51.609375 14.546875 45.953125 7.46875 
Q 39.0625 -1.21875 27.15625 -1.21875 
Q 17.390625 -1.21875 11.203125 4.25 
Q 5.03125 9.71875 4.15625 18.75 
z
" id="ArialMT-53"/>
      </defs>
      <g style="fill:#262626;" transform="translate(438.785402 203.033268)scale(0.1 -0.1)">
       <use xlink:href="#ArialMT-49"/>
       <use x="55.615234" xlink:href="#ArialMT-46"/>
       <use x="83.398438" xlink:href="#ArialMT-53"/>
      </g>
     </g>
    </g>
   </g>
   <g id="line2d_62">
    <path clip-path="url(#p320a5da1ba)" d="M 456.185402 225.671718 
L 457.004989 226.950993 
L 457.824577 242.68377 
L 458.644165 238.509399 
L 459.463753 253.84987 
L 460.283341 251.743897 
L 461.102928 224.374862 
L 461.922516 226.374155 
L 462.742104 214.899651 
L 463.561692 228.00108 
L 464.38128 244.23817 
L 465.200867 227.40516 
L 466.020455 241.291278 
L 466.840043 253.246488 
L 467.659631 227.185725 
L 468.479219 224.153188 
L 469.298807 183.782915 
L 470.118394 210.526699 
L 470.937982 225.981458 
L 471.75757 232.041366 
L 472.577158 225.384553 
L 473.396746 171.453327 
L 474.216333 242.617715 
L 475.035921 232.032913 
L 475.855509 239.310163 
L 476.675097 242.176899 
L 477.494685 242.807417 
L 478.314272 247.446271 
L 479.13386 232.976093 
L 479.953448 246.017835 
L 481.592624 238.926812 
L 482.412212 248.159107 
L 483.231799 244.626135 
L 484.051387 228.993292 
L 484.870975 227.509386 
L 485.690563 246.33919 
L 486.510151 228.379729 
L 487.329738 234.863597 
L 488.149326 215.96937 
L 488.968914 240.44265 
L 489.788502 239.977622 
L 490.60809 241.443867 
L 491.427677 229.294201 
L 492.247265 235.313088 
L 493.066853 198.252623 
L 493.886441 246.919779 
L 494.706029 212.708928 
L 495.525617 237.236144 
L 496.345204 216.798284 
L 497.164792 243.67231 
L 497.98438 248.568264 
L 498.803968 236.128847 
L 499.623556 245.146613 
L 500.443143 229.19595 
L 501.262731 248.187128 
L 502.082319 225.934901 
L 502.901907 234.153099 
L 503.721495 220.39337 
L 504.541082 250.130251 
L 505.36067 242.593378 
L 506.180258 237.315997 
L 506.999846 197.824869 
L 507.819434 226.157737 
L 509.458609 216.595726 
L 510.278197 246.907997 
L 511.097785 220.103391 
L 511.917373 228.311293 
L 512.736961 240.491582 
L 513.556548 232.729197 
L 514.376136 239.65554 
L 515.195724 236.93296 
L 516.015312 260.892969 
L 516.8349 226.495553 
L 517.654487 205.440884 
L 518.474075 217.002838 
L 519.293663 223.586444 
L 520.113251 244.270366 
L 520.932839 221.688155 
L 521.752426 242.224849 
L 522.572014 245.518501 
L 523.391602 218.383164 
L 524.21119 228.20551 
L 525.030778 248.240514 
L 525.850366 241.62665 
L 526.669953 228.566203 
L 527.489541 230.126454 
L 528.309129 236.820232 
L 529.128717 261.326226 
L 529.948305 223.188249 
L 530.767892 221.463892 
L 531.58748 254.215854 
L 533.226656 230.399912 
L 534.046244 220.73329 
L 534.865831 227.814497 
L 535.685419 218.077107 
L 536.505007 230.381272 
L 537.324595 222.31265 
L 538.144183 252.445694 
L 538.963771 234.047014 
L 539.783358 241.428359 
L 540.602946 219.42703 
L 541.422534 234.875366 
L 542.242122 243.592274 
L 543.06171 250.909664 
L 543.881297 233.56666 
L 544.700885 232.519376 
L 545.520473 218.981796 
L 546.340061 242.42224 
L 547.159649 235.31287 
L 547.979236 232.389728 
L 548.798824 209.747352 
L 549.618412 254.303242 
L 550.438 243.202722 
L 551.257588 243.443529 
L 552.077176 222.1918 
L 552.896763 249.436554 
L 553.716351 242.143049 
L 554.535939 220.632632 
L 555.355527 247.156882 
L 556.175115 244.162499 
L 556.994702 233.535963 
L 557.81429 235.545894 
L 558.633878 249.607645 
L 559.453466 234.821795 
L 560.273054 237.336937 
L 561.092641 252.475088 
L 561.912229 228.195667 
L 562.731817 239.869681 
L 563.551405 237.815659 
L 564.370993 243.572008 
L 565.190581 244.35054 
L 566.010168 233.59369 
L 566.829756 214.067221 
L 567.649344 257.055072 
L 568.468932 251.16589 
L 569.28852 217.851699 
L 570.108107 231.665387 
L 570.927695 235.671843 
L 571.747283 199.628383 
L 572.566871 227.080994 
L 573.386459 246.947859 
L 574.206046 244.09423 
L 575.025634 227.147948 
L 575.845222 244.057565 
L 576.66481 248.500357 
L 577.484398 233.253473 
L 578.303986 241.382867 
L 579.123573 237.196211 
L 579.943161 231.015937 
L 580.762749 234.051123 
L 581.582337 254.654204 
L 582.401925 221.736614 
L 583.221512 247.415657 
L 584.0411 223.169911 
L 584.860688 218.990231 
L 585.680276 238.035838 
L 586.499864 235.585181 
L 587.319451 222.681601 
L 588.139039 221.051694 
L 588.958627 248.229698 
L 589.778215 239.158577 
L 590.597803 233.520449 
L 591.41739 233.496414 
L 592.236978 241.193369 
L 593.056566 234.695481 
L 593.876154 243.107061 
L 594.695742 238.368586 
L 595.51533 240.218034 
L 596.334917 257.835533 
L 597.154505 250.195836 
L 597.974093 236.386571 
L 599.613269 240.554982 
L 600.432856 225.08902 
L 601.252444 221.345464 
L 602.072032 239.346714 
L 602.89162 228.195134 
L 603.711208 237.809399 
L 604.530795 233.339619 
L 605.350383 216.855675 
L 606.989559 234.851211 
L 607.809147 260.34096 
L 608.628735 232.254788 
L 609.448322 247.169254 
L 610.26791 217.822726 
L 611.087498 245.575381 
L 611.907086 247.352623 
L 612.726674 218.367973 
L 613.546261 221.072263 
L 614.365849 237.231553 
L 615.185437 236.517723 
L 616.005025 200.096031 
L 616.824613 233.926769 
L 617.6442 223.598975 
L 618.463788 231.121908 
L 620.102964 252.536954 
L 620.922552 218.229803 
L 621.74214 240.997736 
L 622.561727 236.328446 
L 623.381315 236.735311 
L 624.200903 238.045628 
L 625.020491 247.672668 
L 625.840079 265.113169 
L 626.659666 244.207856 
L 627.479254 216.184774 
L 628.298842 218.165088 
L 629.11843 222.617588 
L 629.938018 254.426258 
L 630.757605 234.245991 
L 631.577193 228.70028 
L 632.396781 224.976019 
L 633.216369 258.803117 
L 634.035957 241.445322 
L 634.855545 215.226913 
L 635.675132 261.328912 
L 636.49472 254.862681 
L 637.314308 238.335238 
L 638.133896 253.747259 
L 638.953484 224.566383 
L 639.773071 241.9009 
L 640.592659 238.093685 
L 641.412247 178.295167 
L 642.231835 236.638459 
L 643.051423 259.265447 
L 643.87101 239.030268 
L 644.690598 247.46375 
L 645.510186 246.143041 
L 646.329774 256.251484 
L 647.149362 243.814453 
L 647.96895 241.268567 
L 648.788537 237.92238 
L 649.608125 228.687697 
L 650.427713 249.137193 
L 651.247301 254.276223 
L 652.066889 241.655354 
L 652.886476 240.046359 
L 653.706064 246.01109 
L 654.525652 219.743477 
L 655.34524 240.409747 
L 656.164828 251.450813 
L 656.984415 253.232771 
L 657.804003 216.704259 
L 658.623591 239.051512 
L 659.443179 241.815943 
L 660.262767 247.483581 
L 661.901942 234.599697 
L 662.72153 215.462241 
L 663.541118 245.462436 
L 664.360706 261.66492 
L 665.180294 242.334327 
L 665.999881 244.781835 
L 666.819469 246.424142 
L 667.639057 223.980572 
L 668.458645 238.936424 
L 669.278233 250.593466 
L 670.09782 253.135613 
L 670.917408 240.874746 
L 671.736996 235.815787 
L 672.556584 224.060574 
L 673.376172 248.407969 
L 674.19576 225.95627 
L 675.015347 212.368375 
L 675.834935 241.78455 
L 676.654523 244.010749 
L 677.474111 251.642751 
L 678.293699 224.991167 
L 679.113286 249.441001 
L 679.932874 248.166654 
L 680.752462 215.589182 
L 681.57205 231.760049 
L 682.391638 229.165674 
L 683.211225 200.788848 
L 684.030813 240.044805 
L 684.850401 237.722476 
L 685.669989 219.774318 
L 686.489577 234.25209 
L 687.309164 224.837369 
L 688.128752 252.451555 
L 688.94834 242.760316 
L 689.767928 240.922438 
L 690.587516 245.510625 
L 691.407104 243.09072 
L 692.226691 221.831896 
L 693.046279 216.16724 
L 693.865867 259.132407 
L 694.685455 229.311916 
L 695.505043 221.459422 
L 696.32463 246.435483 
L 697.144218 224.276529 
L 698.783394 260.059836 
L 699.602982 196.740818 
L 700.422569 214.327374 
L 701.242157 252.159333 
L 702.061745 225.212009 
L 702.881333 237.836585 
L 703.700921 220.650669 
L 704.520509 242.143851 
L 705.340096 217.181678 
L 706.159684 259.408164 
L 706.979272 251.009287 
L 707.79886 239.033868 
L 708.618448 234.135812 
L 709.438035 254.085208 
L 710.257623 229.758971 
L 711.077211 217.634785 
L 711.896799 244.592139 
L 712.716387 230.817048 
L 713.535974 220.462223 
L 714.355562 247.311355 
L 715.17515 248.48725 
L 715.994738 202.063053 
L 716.814326 248.807268 
L 717.633914 222.942219 
L 718.453501 232.989536 
L 719.273089 236.196601 
L 720.092677 243.663278 
L 720.912265 246.337142 
L 721.731853 218.574981 
L 722.55144 232.554661 
L 723.371028 222.930755 
L 724.190616 251.914944 
L 725.010204 251.065788 
L 725.829792 229.273165 
L 726.649379 223.048514 
L 727.468967 242.819644 
L 728.288555 236.536694 
L 729.108143 244.283703 
L 729.927731 226.932059 
L 730.747319 237.413314 
L 731.566906 239.509136 
L 732.386494 232.369596 
L 733.206082 251.420742 
L 734.02567 253.60709 
L 734.845258 241.056638 
L 735.664845 219.356632 
L 738.123609 241.065597 
L 738.943197 212.967504 
L 739.762784 228.507567 
L 740.582372 234.064392 
L 741.40196 235.180855 
L 742.221548 248.874022 
L 743.041136 244.207613 
L 743.860724 252.448831 
L 744.680311 258.775665 
L 745.499899 239.325586 
L 746.319487 240.480168 
L 747.139075 249.614018 
L 747.958663 233.233934 
L 748.77825 253.495217 
L 749.597838 247.782372 
L 750.417426 229.929659 
L 751.237014 237.594201 
L 752.056602 246.534603 
L 752.876189 216.043361 
L 753.695777 246.485586 
L 755.334953 226.975408 
L 756.154541 257.101948 
L 756.974129 221.468155 
L 757.793716 245.07165 
L 758.613304 253.056248 
L 759.432892 252.772788 
L 760.25248 225.320863 
L 761.072068 256.98844 
L 761.891655 221.267436 
L 762.711243 234.955441 
L 763.530831 245.089714 
L 764.350419 261.807597 
L 765.170007 250.335194 
L 765.989594 243.432909 
L 766.809182 234.81787 
L 767.62877 208.599932 
L 768.448358 237.998827 
L 769.267946 231.525556 
L 770.087533 246.561733 
L 770.907121 251.234614 
L 771.726709 240.936994 
L 772.546297 253.806685 
L 773.365885 241.198256 
L 774.185473 242.129515 
L 775.00506 242.570915 
L 775.824648 220.000881 
L 776.644236 236.260495 
L 777.463824 250.075311 
L 778.283412 238.291702 
L 779.102999 244.378508 
L 779.922587 251.803847 
L 780.742175 233.031881 
L 781.561763 245.917939 
L 782.381351 243.4692 
L 783.200938 257.801013 
L 784.020526 247.033425 
L 784.840114 219.477194 
L 785.659702 234.607947 
L 786.47929 257.630914 
L 787.298878 246.36533 
L 788.118465 232.184687 
L 788.938053 234.778722 
L 789.757641 246.378218 
L 790.577229 244.292499 
L 791.396817 244.754297 
L 792.216404 241.848701 
L 793.035992 233.406818 
L 793.85558 240.89672 
L 794.675168 217.312546 
L 795.494756 248.355206 
L 796.314343 217.27239 
L 797.133931 252.518313 
L 797.953519 225.134622 
L 798.773107 221.165839 
L 799.592695 237.058722 
L 800.412283 237.816556 
L 801.23187 248.074466 
L 802.051458 271.549404 
L 802.871046 225.467975 
L 803.690634 248.399029 
L 804.510222 248.832305 
L 805.329809 215.86314 
L 806.149397 239.560999 
L 806.968985 204.946649 
L 808.608161 245.627952 
L 809.427748 258.455885 
L 810.247336 235.175373 
L 811.066924 250.586377 
L 811.886512 251.899548 
L 812.7061 235.45473 
L 813.525688 209.577291 
L 814.345275 240.676748 
L 815.164863 225.247718 
L 815.984451 203.651324 
L 816.804039 246.314084 
L 817.623627 210.297124 
L 818.443214 240.512664 
L 819.262802 231.275574 
L 820.08239 240.736818 
L 820.901978 226.846909 
L 821.721566 197.829809 
L 822.541153 239.064493 
L 823.360741 241.421261 
L 824.180329 241.151163 
L 824.999917 227.11142 
L 825.819505 226.33618 
L 826.639093 243.593341 
L 827.45868 223.474659 
L 828.278268 251.077213 
L 829.097856 217.894407 
L 829.917444 248.978061 
L 830.737032 230.126964 
L 831.556619 192.95367 
L 832.376207 255.342043 
L 833.195795 205.654597 
L 834.015383 229.586228 
L 834.834971 257.989054 
L 836.474146 237.193901 
L 837.293734 237.705743 
L 838.113322 246.827933 
L 838.93291 250.670561 
L 839.752498 248.601934 
L 840.572085 233.333419 
L 841.391673 239.951923 
L 842.211261 229.935117 
L 843.030849 236.685141 
L 843.850437 250.528298 
L 844.670024 233.962094 
L 845.489612 244.987564 
L 846.3092 247.640084 
L 847.128788 241.428525 
L 847.948376 236.083214 
L 848.767963 248.477584 
L 849.587551 218.943963 
L 850.407139 247.822864 
L 851.226727 229.280827 
L 852.046315 235.326551 
L 852.865902 224.893486 
L 853.68549 216.659317 
L 854.505078 223.331815 
L 855.324666 244.916024 
L 856.144254 195.42705 
L 856.963842 217.164086 
L 857.783429 255.842169 
L 859.422605 221.778214 
L 860.242193 248.116419 
L 861.061781 224.366273 
L 861.881368 250.902682 
L 862.700956 229.080388 
L 863.520544 268.994565 
L 864.340132 246.262253 
L 865.15972 242.492166 
L 865.15972 242.492166 
" style="fill:none;stroke:#1f77b4;stroke-linecap:round;stroke-opacity:0.35;stroke-width:1.363636;"/>
   </g>
   <g id="patch_18">
    <path d="M 456.185402 276.554208 
L 456.185402 166.448523 
" style="fill:none;"/>
   </g>
   <g id="patch_19">
    <path d="M 865.15972 276.554208 
L 865.15972 166.448523 
" style="fill:none;"/>
   </g>
   <g id="patch_20">
    <path d="M 456.185402 276.554208 
L 865.15972 276.554208 
" style="fill:none;"/>
   </g>
   <g id="patch_21">
    <path d="M 456.185402 166.448523 
L 865.15972 166.448523 
" style="fill:none;"/>
   </g>
   <g id="text_33">
    <!-- sd -->
    <g style="fill:#262626;" transform="translate(654.912049 160.448523)scale(0.109091 -0.109091)">
     <use xlink:href="#ArialMT-115"/>
     <use x="50" xlink:href="#ArialMT-100"/>
    </g>
   </g>
  </g>
 </g>
 <defs>
  <clipPath id="pe0083135bc">
   <rect height="110.105685" width="408.974318" x="9.329978" y="21.008523"/>
  </clipPath>
  <clipPath id="p45c6b39fd2">
   <rect height="110.105685" width="408.974318" x="456.185402" y="21.008523"/>
  </clipPath>
  <clipPath id="p662b35a2f1">
   <rect height="110.105685" width="408.974318" x="9.329978" y="166.448523"/>
  </clipPath>
  <clipPath id="p320a5da1ba">
   <rect height="110.105685" width="408.974318" x="456.185402" y="166.448523"/>
  </clipPath>
 </defs>
</svg>
